<svg xmlns="http://www.w3.org/2000/svg" xmlns:xlink="http://www.w3.org/1999/xlink" width="78px" height="88px" viewBox="0 0 78 88" version="1.1">
    <title>map-icon</title>
    <g id="Page-1" stroke="none" stroke-width="1" fill="none" fill-rule="evenodd">
        <g id="map-icon">
            <g id="Group-25" fill="#FFAF00">
                <path d="M39,0 C60.5391052,0 78,17.6448868 78,39.4109578 C78,58.2236788 64.9560345,73.9577153 47.5089832,77.8811358 L39.2143039,88 L31.0123599,77.9945756 C13.3044557,74.2700697 0,58.4105968 0,39.4109578 C0,17.6448868 17.4608948,0 39,0 Z" id="Combined-Shape"/>
            </g>
            <g id="Group" transform="translate(15.386442, 12.000000)">
                <g id="id4">
                    <rect id="Rectangle" x="0.00158591527" y="0" width="47.5790139" height="50"/>
                    <path d="M19.6349614,48.4513274 C18.43395,48.4386852 17.9219399,47.4905183 17.6564532,47.4905183 C17.536352,47.806574 18.3644178,48.817952 18.4023444,48.8305942 C18.0673255,48.8874842 17.2771864,48.7484197 16.9864152,48.6472819 C16.6387541,48.5271808 16.2594873,48.1352718 16.076175,47.8697851 C15.791725,47.4336283 15.7285139,47.1807838 15.8549361,46.5676359 C16.2089184,44.8988622 17.4921042,44.7345133 18.3391333,46.3843236 C18.8385012,47.357775 18.6741523,47.4652339 19.5338236,48.312263 C19.5527869,48.3375474 19.5654292,48.3438685 19.5843925,48.369153 C19.6349614,48.4323641 19.5907136,48.3628319 19.6349614,48.4513274 Z M10.1785771,39.8609355 C10.0964026,39.5069532 9.96365924,39.2098609 9.88148478,38.8495575 C9.79931031,38.5018963 9.71713585,38.1605563 9.62864028,37.806574 C9.45797024,37.1112516 9.28097909,36.4222503 9.1355935,35.7269279 C8.87010677,34.5259166 8.7816112,34.1908976 9.07238238,32.9329962 C9.11030905,32.7812895 9.68553029,31.7699115 9.72977808,31.7130215 C9.86884255,32.5221239 9.93837479,33.0088496 9.87516366,33.874842 C9.73609919,35.9102402 10.1027237,35.8470291 10.2165037,36.9342604 C10.286036,37.585335 10.5452016,38.4007585 10.3871738,38.9570164 C10.3302838,39.1656131 10.2354671,39.7408344 10.1785771,39.8609355 Z M13.0104355,30.897598 C13.1052522,30.8091024 13.1431788,30.783818 13.2948855,30.7332491 L13.3580967,30.8786346 C13.5603723,31.6182048 14.217768,31.9532238 14.6286403,31.6687737 C14.6412825,31.4981037 14.3947591,31.3716814 14.5907136,31.1757269 C14.8056314,30.9608091 15.4377427,31.2579014 14.723457,31.9721871 C14.2556946,32.4399494 12.9409032,32.1491783 13.0104355,30.897598 Z M39.4390069,23.7547408 C38.8448223,23.7673831 37.8397654,23.3817952 37.3783242,23.1542351 C36.4807262,22.7117573 35.9181472,22.136536 35.8422939,22.0922882 C37.1507642,22.9582807 38.0230777,23.2553729 39.4390069,23.7547408 Z M37.4921042,24.5195954 C36.6450752,24.5006321 35.3113204,23.8621997 34.723457,23.4955752 C34.0154924,23.0594185 33.1874266,22.3514539 32.8524077,21.5865992 C33.0104355,21.7067004 33.1684633,21.9279393 33.3391333,22.0733249 C33.825859,22.4968394 33.882749,22.528445 34.4074013,22.9013906 C34.5843925,23.0214918 34.780347,23.1731985 34.9763015,23.2806574 C35.3239627,23.4702908 37.1760486,24.494311 37.4921042,24.5195954 Z M6.27845064,22.0922882 C6.76517631,22.1049305 7.0116997,22.1744627 7.54899426,22.0922882 C8.28224331,21.9785082 9.04709793,21.7699115 9.67920918,21.4096081 C10.0964026,21.1694058 10.2607515,20.9924147 10.4883116,20.8596713 C10.3745316,21.0303413 10.0964026,21.2705436 9.92573257,21.4096081 C9.27465798,21.9532238 8.42130779,22.3135272 7.49842536,22.3135272 C6.91688301,22.3135272 6.75885519,22.2313527 6.27845064,22.0922882 Z M34.0913457,23.988622 L35.6147338,24.7534766 C34.7550625,24.6902655 33.1115733,23.8811631 32.4099298,23.3185841 C31.6577174,22.7180784 30.6589816,21.6498104 30.4883116,20.6447535 C30.7980461,21.068268 30.9750372,21.5423515 31.4364785,22.0101138 C31.8094241,22.3893805 32.1886908,22.7433628 32.6880587,23.0720607 C33.1494999,23.3817952 33.5730145,23.6915297 34.0913457,23.988622 Z M8.25063775,22.977244 C8.86378566,22.9646018 10.2607515,22.3704172 10.8359728,22.079646 C11.240524,21.8773704 11.5881852,21.6561315 11.9295252,21.4159292 C12.3720031,21.1061947 12.536352,20.9039191 12.8650499,20.6447535 C12.536352,21.2262958 11.6450752,21.908976 10.9813584,22.2629583 C10.2733938,22.642225 9.23041019,23.0278129 8.25063775,22.977244 Z M10.4946327,23.1163085 C11.2531662,22.9013906 12.2329386,22.3072061 12.8587288,21.852086 C13.8637857,21.1378003 13.996529,20.9418458 14.7297781,20.1201011 C14.6412825,20.4045512 14.1798413,21.0366625 14.0154924,21.2199747 C13.7310423,21.5360303 13.4149867,21.8331226 13.0673255,22.0986094 C12.5173887,22.528445 11.411194,23.0973451 10.4946327,23.1163085 Z M34.1798413,17.7307206 C35.0458337,17.5158028 36.0824962,17.3893805 36.9421675,17.6548673 C37.1760486,17.7243995 37.2771864,17.8887484 37.4604987,18.1289507 C36.4238362,18.2111252 35.0584759,18.091024 34.1798413,17.7307206 Z M16.6008274,20.954488 C16.9548097,20.9608091 17.3846453,20.1833123 17.6122054,19.8988622 C17.9472243,19.4753477 19.0154924,17.9519595 19.2240891,17.3957016 C19.4074013,16.9152971 19.3378691,16.4854614 19.5148603,16.3906448 C19.7044936,16.289507 19.9383748,16.3590392 20.0268704,16.5423515 C20.4061371,17.3388116 19.1861624,18.9759798 18.8890701,19.4121365 C18.7436845,19.6207332 18.5982989,19.8166877 18.43395,20.0126422 C18.2759222,20.2022756 18.1368577,20.4108723 17.9914721,20.5878635 C17.814481,20.7901391 17.6564532,20.9165613 17.4857831,21.1061947 C17.4099298,21.1946903 17.3214342,21.3084703 17.2392597,21.3843236 C17.1570853,21.460177 17.0496264,21.4981037 17.0369841,21.6434893 C17.3720031,21.687737 17.9409032,21.0366625 18.20639,20.840708 L19.2873002,19.9936789 C19.5464658,19.7850822 19.7424203,19.5954488 19.9763015,19.380531 C20.2101826,19.159292 20.4251005,18.9506953 20.6589816,18.7231353 C21.0888173,18.2996207 21.5376163,17.8824273 22.0180208,17.4841972 C23.2822433,16.4664981 23.6362256,15.9418458 24.1419146,17.3198483 C24.4895758,18.2869785 24.9826226,19.0202276 25.5325594,19.82933 L26.6324329,21.3337547 C26.7525341,21.4791403 27.0369841,22.022756 27.2329386,21.9974716 C27.2392597,21.8331226 27.0053786,21.4222503 26.9295252,21.2768647 C26.4996896,20.4867257 26.3353407,19.7597977 26.2531662,18.8242731 C26.2025973,18.2364096 26.3732673,17.5158028 26.7209285,17.2313527 C26.916883,17.0733249 27.308792,17.0101138 27.4921042,17.2376738 C27.5616365,17.3261694 27.6185265,17.4589128 27.6943798,17.5600506 C27.7702332,17.6611884 27.8587288,17.7054362 27.9219399,17.8318584 C27.0243419,18.312263 26.9358463,19.6144121 27.2582231,20.8027813 C27.4288931,21.4285714 28.3328122,23.2111252 28.8511434,23.147914 C28.8701068,23.0088496 28.5098034,22.2123894 28.43395,22.022756 C28.0736466,21.0998736 27.8524077,18.7357775 28.9269968,18.4070796 C28.8195379,19.664981 29.0281346,20.4677623 29.5148603,21.4285714 C29.9573381,22.300885 30.4440638,22.9519595 30.9940006,23.539823 C31.4175151,23.988622 32.3467187,24.7281922 33.0926099,25.05689 C33.7752901,25.3666245 35.1848982,25.7522124 36.0508906,25.6826802 C35.8612572,25.8596713 35.3682104,25.9292035 35.1280082,25.9860936 C34.1545568,26.2262958 33.0230777,26.1946903 32.1381219,25.8027813 C31.5755429,25.5499368 31.0445695,25.3034134 30.6273761,24.9620733 C30.3871738,24.7724399 30.2228249,24.6207332 30.0458337,24.380531 C29.9383748,24.2351454 29.7044936,23.7610619 29.5338236,23.7168142 C29.4326858,23.8938053 29.6096769,24.1908976 29.6855303,24.3552465 C29.8119525,24.6523388 30.5199171,25.6068268 30.6905872,25.7711757 C30.848615,25.9165613 30.9371106,26.0366625 31.0951384,26.1757269 C31.5502585,26.573957 31.9105619,26.9152971 32.4604987,27.2376738 C33.7626479,27.9898862 34.8119525,28.1921618 36.3859096,28.0214918 C36.9358463,27.9646018 37.2266175,27.8318584 37.6880587,27.7054362 C37.5489943,28.1226296 36.8979197,28.7673831 36.5755429,28.9759798 C35.8802206,29.4247788 35.5515227,29.3615676 34.6539247,29.4184576 C34.6476036,29.6333755 34.780347,29.6586599 34.9763015,29.7092288 C37.0433053,30.2402023 37.7639121,29.1908976 38.0483621,29.1656131 C38.1747844,30.0063211 37.8524077,30.6131479 37.9345821,31.4917826 C38.0041144,32.1997472 38.3012066,32.8318584 38.4086656,33.539823 C38.5414089,34.3742099 38.3012066,35.0632111 38.1115733,35.783818 C37.7512699,37.1618205 37.7512699,38.6915297 37.2771864,40.05689 C36.9232041,41.0809102 36.4048729,41.6182048 35.7601194,42.3640961 C35.1659348,43.0404551 34.5717503,43.6409608 34.0154924,44.380531 C33.8890701,43.7800253 33.8385012,42.5600506 34.0154924,41.9911504 C34.4895758,40.4424779 35.6589816,39.8609355 36.2215606,38.9570164 C36.411194,38.6472819 36.916883,37.3514539 36.7019652,36.9152971 C36.5186529,36.9342604 36.5312951,37.0859671 36.4364785,37.2756005 C35.3302838,39.5322377 34.0723824,39.0328698 32.8524077,41.6687737 C32.7070221,41.9721871 32.6690954,42.2503161 32.5805998,42.4525917 C32.5489943,42.5221239 32.5553154,42.5094817 32.5173887,42.5474083 C32.3214342,41.8141593 32.0559475,41.5613148 32.0685897,40.6384324 C32.0749108,40.3792668 32.4984254,39.1276865 32.6058843,38.8558786 C33.0483621,37.7370417 33.8574645,37.0353982 34.4642914,36.0366625 C35.0331915,35.0884956 35.0900815,34.3931732 34.3694747,33.5082174 C33.8448223,32.8571429 33.3580967,32.1871049 32.9788299,31.3906448 C32.8524077,31.125158 32.7449487,30.8533502 32.6185265,30.5878635 C32.5110676,30.335019 32.4415353,29.8230088 32.2582231,29.8166877 C32.0938742,30.0379267 32.3972876,31.5613148 32.4415353,31.9279393 C32.5426731,32.806574 32.3972876,33.2616941 31.9927364,33.817952 C31.5755429,34.3931732 30.286036,36.2199747 30.4819905,36.965866 C30.6210549,36.965866 30.6463394,36.8647282 30.7285139,36.7635904 C30.7980461,36.6750948 30.848615,36.6055626 30.9181472,36.4981037 C31.0382484,36.3211125 31.1520284,36.1188369 31.2784506,35.9418458 C31.468084,35.6700379 31.8094241,35.1011378 32.2898286,35.17067 C32.5869209,35.5436157 32.4415353,36.4159292 32.251902,36.8141593 C30.0395126,41.3337547 32.2392597,43.1731985 31.5186529,45.1896334 C31.3416618,45.6826802 31.0951384,46.1378003 30.8106883,46.4791403 C30.5768072,46.7635904 30.1280082,47.2692794 29.7360992,47.414665 C29.8119525,47.022756 29.9889437,46.6498104 29.9889437,46.2262958 C29.8498792,46.2262958 29.2936213,46.7383059 29.1103091,46.852086 C28.1431788,47.4589128 27.5173887,48.2680152 26.2342029,48.426043 C26.4364785,48.1036662 26.5376163,48.0467762 26.6577174,47.5663717 C26.8473508,46.8015171 26.8536719,45.9292035 26.803103,45.1327434 C26.7904608,44.8798989 26.8663141,44.1529709 26.5186529,44.159292 C26.4427996,44.2604298 26.3290195,45.2654867 26.2594873,45.5120101 C26.1457073,45.9102402 25.9940006,46.3084703 25.8359728,46.6687737 C25.1090448,48.4007585 24.8625214,48.1921618 22.9725088,48.5524652 C22.6122054,48.6156764 22.6058843,48.5587863 22.3403975,48.4197219 C21.5060107,47.9709229 20.8359728,47.300885 20.1090448,46.7193426 C19.5211814,46.2452592 19.0028501,45.7458913 18.3960233,45.2654867 C17.9725088,44.9304678 17.7196643,44.7914033 17.6690954,44.4247788 C17.6374898,44.1972187 17.5047465,43.1415929 17.5300309,43.0025284 C17.5489943,42.8697851 17.7323065,42.585335 17.8081599,42.4778761 C18.49084,41.5613148 19.331548,41.9405815 20.3049993,41.0366625 C20.4946327,40.8659924 20.8675783,40.3034134 20.8359728,40.0189633 C20.5894494,39.9557522 20.007907,40.7458913 19.3378691,40.8091024 C17.8587288,40.954488 18.0546833,41.2010114 17.5995632,41.3716814 C17.5553154,40.3855879 17.4668198,39.3489254 17.4921042,38.3501896 C17.4984254,38.0783818 17.5489943,37.585335 17.3972876,37.414665 C17.2266175,37.4589128 17.251902,37.6738306 17.2266175,37.863464 L16.9611308,39.380531 C16.8283874,40.0505689 16.6703596,40.676359 16.5502585,41.3590392 C16.468084,41.3400759 16.0635328,41.068268 15.9244683,40.9924147 C14.6981725,40.3223767 14.6286403,39.5891277 14.3505113,39.5385588 C14.2367313,39.721871 14.6602458,40.5436157 14.7550625,40.7585335 C15.3113204,41.9974716 15.8233305,41.6624526 16.4175151,42.4020228 C16.7714974,42.8318584 16.6450752,43.2490518 16.6008274,43.7989886 C16.5123318,44.8609355 16.6956441,44.5701643 16.0256061,44.9115044 C15.2923571,45.2844501 14.7866681,45.9355247 14.502218,46.687737 C14.2556946,47.3514539 14.2620158,47.4525917 14.4200436,48.0467762 C14.274658,47.9962073 13.9459601,47.7560051 13.8005745,47.6548673 C13.1431788,47.2187105 13.1621422,47.2060683 12.6690954,46.7446271 C12.4668198,46.5613148 12.2835075,46.3906448 12.1697275,46.2262958 C11.8663141,45.7901391 11.8473508,45.1959545 11.7841396,44.5764855 C11.746213,44.1972187 11.7272496,42.8761062 11.6134696,42.7560051 C11.4048729,42.7749684 11.4301573,43.1605563 11.3985518,43.4134008 C11.297414,44.216182 11.3416618,45.0316056 11.354304,45.8280657 C10.1596137,44.0139064 11.1457073,42.8381795 11.0951384,41.9026549 C11.0698539,41.460177 10.9497528,40.9671302 10.8928628,40.5120101 C10.7664405,39.5006321 10.8738994,38.426043 10.7411561,37.4336283 C10.6653027,36.9026549 10.6336972,36.4664981 10.6905872,35.9165613 C10.7095505,35.6890013 10.8043672,34.7977244 10.9434317,34.5701643 C11.1014595,34.7155499 11.2089184,34.9747155 11.3353407,35.1769912 C11.4617629,35.3729456 11.6071485,35.5878635 11.6513963,35.840708 C11.7335707,36.3084703 11.7651763,37.1491783 11.7714974,37.6485461 C11.7841396,38.2932996 11.8473508,38.9190898 11.803103,39.5764855 C11.7778185,39.8798989 11.746213,40.1833123 11.7525341,40.4993679 L11.8157452,41.3843236 C12.0812319,41.4412137 12.1381219,41.0935525 12.2266175,40.8343869 C12.3151131,40.5752212 12.3972876,40.335019 12.4921042,40.0758534 C12.8397654,39.0707965 13.2127111,38.0594185 13.5287667,37.0290771 C14.1166302,35.0821745 13.5793356,35.7142857 15.3934949,34.8230088 C15.8549361,34.5954488 16.2784506,34.3552465 16.7335707,34.1213654 C17.6501321,33.6472819 18.3960233,33.0214918 18.6172623,31.9595449 C18.2759222,31.9974716 17.7891965,32.9898862 16.3226984,33.5018963 L15.3745316,33.817952 C15.4946327,33.5335019 16.0129639,32.8445006 16.1962762,32.6359039 C16.2784506,32.5410872 16.354304,32.4778761 16.4364785,32.3830594 L16.9358463,31.9026549 C17.0243419,31.8331226 17.1318008,31.795196 17.1444431,31.6561315 C16.8915986,31.5929204 16.1899551,32.0922882 15.9181472,32.1681416 C15.9371106,31.9532238 15.9750372,31.7699115 15.9876795,31.5486726 C16.0066428,31.2579014 16.0445695,31.2768647 16.2025973,31.1314791 C16.5439374,30.8154235 16.4933685,30.8596713 17.0559475,30.7269279 C17.7323065,30.5689001 18.3707389,30.2654867 18.7563267,29.8925411 C20.1153659,28.5587863 18.6362256,26.8331226 17.9219399,26.7130215 C17.9535455,26.908976 18.0862888,26.9974716 18.1874266,27.136536 C19.2873002,28.6788875 17.7765543,29.8925411 17.0243419,29.8735777 C16.6766807,29.8672566 16.2594873,29.7155499 15.9813584,29.5891277 C15.7854039,29.5006321 15.4377427,29.0771176 15.3239627,28.9064475 C14.7487414,28.0594185 15.0268704,26.965866 14.9130903,26.7256637 C14.8182737,26.7572693 14.8814848,26.6814159 14.8056314,26.8268015 C14.6349614,27.1554994 14.6033558,27.5790139 14.4579702,27.9140329 C14.1861624,27.863464 14.1419146,27.699115 13.7184001,27.6801517 C13.4781978,27.6738306 12.9977932,27.6738306 13.0736466,27.920354 C13.1747844,27.9962073 13.4149867,27.9646018 13.5856567,28.0783818 C13.9649235,28.3249052 14.217768,28.7989886 14.5654292,29.102402 C14.7929892,29.3046776 15.064797,29.5069532 15.2986782,29.7029077 L16.076175,30.2718078 C15.9876795,30.3223767 15.9687161,30.3476612 15.8991839,30.4045512 L13.7247212,29.5891277 C13.5666934,29.5195954 13.20639,29.2730721 13.0483621,29.3426043 C12.8903343,29.4753477 13.1811055,29.8103666 13.2379955,29.9115044 L12.2076542,30.2338812 C11.916883,30.3160556 11.4048729,30.4235145 11.3037351,30.6510746 C11.411194,30.8470291 11.4933685,30.7901391 11.7651763,30.8091024 C11.8789563,31.4412137 11.8789563,31.5486726 12.2266175,31.9721871 C12.3467187,32.1175727 12.8460865,32.6169406 13.1115733,32.642225 C13.1368577,32.4652339 12.7891965,32.2756005 12.6817376,32.1049305 C12.593242,31.9532238 12.4984254,31.573957 12.4984254,31.3653603 C12.7196643,31.7635904 12.9661877,31.9405815 13.3391333,32.1871049 C13.5414089,32.3198483 13.6804734,32.3704172 13.939639,32.4336283 C14.2936213,32.5158028 14.4137225,32.4462705 14.7044936,32.4778761 C14.7993103,32.6548673 14.8751637,32.8255373 14.780347,33.0847029 C14.5654292,33.653603 14.2304102,33.3944374 13.9712446,33.7484197 C13.6362256,34.2035398 13.4023444,34.6713021 13.26328,35.2591656 C13.2190322,35.4614412 13.1747844,35.6573957 13.1305366,35.8659924 C13.1052522,35.9734513 13.0862888,36.0745891 13.042041,36.1630847 L12.8966554,36.3400759 C12.8966554,36.3337547 12.8840132,36.3527181 12.8776921,36.3527181 C12.4984254,35.9860936 12.1381219,35.0884956 11.9232041,34.5575221 C11.8347085,34.3426043 11.746213,34.1276865 11.6513963,33.9127686 C11.4996896,33.5651075 10.8296517,32.3135272 10.8675783,31.9532238 C10.8928628,31.7193426 11.0129639,31.4791403 11.0508906,31.2262958 C11.1899551,30.3160556 10.734835,30.6384324 11.0256061,29.7092288 C11.2910929,28.8685209 12.1191586,27.5031606 12.6817376,26.8015171 C12.7512699,26.7193426 12.8081599,26.6434893 12.8903343,26.5613148 C12.9788299,26.4728192 13.0483621,26.4538559 13.0357199,26.3084703 C12.8208021,26.2958281 12.479462,26.6624526 12.2835075,26.7888748 C11.6324329,27.2060683 10.9307895,28.0025284 10.3934949,28.5714286 C10.3113204,28.091024 10.3555682,27.1744627 10.5831283,26.8141593 C10.6969083,26.7572693 11.3100562,26.6687737 11.5060107,26.6118837 C12.0559475,26.4538559 12.4857831,26.1883692 12.9029766,25.8343869 L14.6349614,24.2604298 C14.8625214,24.0391909 15.6526605,23.3754741 15.5072749,23.034134 C15.3113204,22.9962073 15.1216871,23.1668774 14.9699804,23.2616941 L14.0091713,23.8432364 C13.20639,24.3742099 11.9800941,24.7850822 10.9876795,24.4184576 C11.2531662,24.2793932 11.7904608,24.1782554 12.1191586,24.0581542 C13.1178944,23.7041719 14.1355935,23.034134 14.8562003,22.3767383 C16.7778185,20.6257901 16.8852774,19.2541087 17.1886908,18.8116308 C17.3720031,19.6586599 16.5502585,20.505689 16.6008274,20.954488 Z M31.8536719,17.2945638 C31.297414,17.2819216 30.7980461,17.1428571 30.1848982,17.1744627 C29.6728881,17.2060683 29.0850246,17.2882427 28.6678312,17.0101138 C28.3075278,16.7699115 28.2569589,16.1314791 28.4402711,15.6447535 C28.5098034,15.4677623 28.9269968,14.5385588 29.0091713,14.4310999 C29.2873002,14.8798989 29.1229513,15.17067 30.0964026,16.2073325 C30.6716238,16.8204804 31.3416618,17.0037927 31.8536719,17.2945638 Z M14.1419146,17.6611884 C14.274658,17.5221239 14.5338236,17.3893805 14.7108147,17.2756005 C14.9194115,17.1491783 15.1280082,17.079646 15.3492471,16.965866 C16.1899551,16.5297092 16.8663141,15.8912769 17.1444431,14.9683944 C17.4099298,14.0897598 17.251902,13.8558786 17.3024709,13.2237674 C17.3846453,13.3438685 17.4288931,13.5271808 17.4984254,13.6662453 C17.7512699,14.1908976 18.0041144,14.380531 18.1242155,14.8230088 C18.3264911,15.5562579 18.2759222,16.1946903 17.9219399,16.8015171 C17.7702332,17.0670038 17.5869209,17.2503161 17.2835075,17.3893805 C16.8789563,17.5726928 16.7398919,17.528445 16.2721295,17.5790139 C15.5641649,17.6548673 14.8435581,17.8824273 14.1419146,17.6611884 Z M14.2999424,15.505689 C14.9067692,14.4753477 14.9383748,14.1403287 15.342926,13.4134008 C15.4440638,13.2300885 15.5262383,13.0088496 15.6210549,12.8824273 C15.8928628,12.5221239 16.3922307,11.908976 16.8347085,11.7762326 C16.7019652,12.2250316 16.5502585,12.4336283 16.5439374,13.0151707 C16.5439374,13.3944374 16.6640385,14.159292 16.5060107,14.4627054 C16.3669462,14.721871 15.3366049,15.8659924 15.0521548,16.0303413 C15.1153659,15.8091024 15.3302838,15.5246523 15.4377427,15.2275601 C15.5072749,15.0252845 15.7790828,14.5448799 15.6842661,14.3426043 C15.3871738,14.3742099 14.9067692,15.2654867 14.2999424,15.505689 Z M32.7828754,15.9165613 C33.7057578,16.2010114 33.1621422,16.0556258 33.7373634,16.3337547 C32.4099298,16.3906448 31.0572117,15.6573957 30.3302838,15.0695322 C30.1406504,14.9178255 29.9826226,14.6333755 29.8498792,14.3489254 C29.6918514,14.0139064 29.666567,13.8053097 29.6349614,13.4007585 C29.5907136,12.6232617 29.5527869,12.0353982 29.4200436,11.289507 C30.3934949,11.3843236 30.8865417,12.0037927 31.2152395,12.8508217 C31.7335707,14.1656131 31.354304,13.8432364 32.2266175,15.1201011 C31.9864152,15.0695322 31.4744051,14.7787611 31.2784506,14.6460177 C30.9118261,14.3931732 30.6147338,14.0518331 30.4124582,14.0581542 C30.4124582,14.3426043 30.8233305,14.8040455 30.9560739,14.9304678 C31.4427996,15.4108723 32.1065164,15.7079646 32.7828754,15.9165613 Z M40.3745316,30.562579 C39.9952648,29.5828066 39.7044936,28.596713 39.4390069,27.5663717 C39.3694747,27.3072061 39.6539247,26.4412137 39.7424203,25.9608091 C39.9194115,25.8849558 40.1406504,25.8533502 40.342926,25.783818 C40.8928628,25.6005057 41.3795884,25.2907712 41.9042408,25.0695322 C42.6185265,24.7661188 43.3012066,24.3362832 43.8005745,23.9064475 C44.7487414,23.091024 45.791725,21.8836915 46.411194,20.4045512 C46.7146074,19.6839444 47.0433053,18.9443742 47.1634064,18.0973451 C47.2708653,17.3324905 47.3151131,15.9608091 47.1381219,15.2275601 C46.9358463,14.4184576 46.5186529,13.7357775 46.1204228,13.1921618 C45.6716238,12.585335 45.2354671,12.0543616 44.6981725,11.5802781 C44.4137225,11.3274336 44.1861624,11.1314791 43.8448223,10.8912769 C41.581864,9.29835651 38.6931156,8.35018963 36.8789563,7.17446271 C35.9307895,6.55499368 35.1090448,5.91656131 34.4326858,5.01896334 C34.2114469,4.72819216 34.0028501,4.4437421 33.8005745,4.1403287 C33.3075278,3.3817952 32.5426731,2.02275601 32.2645442,1.1125158 C32.2013331,0.897597977 32.1444431,0.714285714 32.0938742,0.505689001 C32.0622686,0.398230088 32.0433053,0.309734513 32.0116997,0.202275601 C31.9674519,0.0189633375 31.9927364,0.0252844501 31.8536719,0 C31.7904608,0.107458913 31.7209285,0.840707965 31.7082863,1.02402023 C31.6703596,2.06068268 31.8410297,3.1289507 32.0685897,4.11504425 C32.6311687,6.55499368 33.9902079,9.13400759 35.7158716,10.7964602 L36.297414,11.3400759 C37.3214342,12.3893805 39.053419,13.3881163 40.286036,14.2414665 C40.7221927,14.5448799 41.183634,14.8925411 41.5881852,15.2275601 C42.0116997,15.5815424 42.3846453,15.9165613 42.7449487,16.3527181 C43.6299045,17.4462705 43.9459601,18.3565107 43.7184001,19.7850822 C43.60462,20.4930468 43.4718767,20.9671302 43.1621422,21.517067 C42.9472243,21.9026549 42.4984254,22.5663717 42.2013331,22.8128951 C42.5489943,22.3514539 42.9914721,21.3211125 43.1684633,20.6068268 C43.4086656,19.6586599 43.4402711,18.7168142 43.098931,17.8255373 C42.8650499,17.2123894 42.2266175,16.182048 41.8663141,15.8596713 C41.411194,15.448799 40.5325594,14.6523388 39.9826226,14.5132743 C40.007907,14.6333755 40.4440638,15.2718078 40.5578438,15.4867257 C40.962395,16.2579014 40.8675783,17.0480405 40.3176415,17.7496839 C39.9636592,18.1984829 39.1229513,18.2364096 38.5224456,18.1984829 C38.0926099,18.1731985 38.2127111,18.2364096 37.9725088,18.0025284 C37.4036087,17.4462705 36.8979197,16.2831858 36.0382484,15.4361568 C34.7993103,14.2288243 33.7184001,14.6460177 32.4162509,13.0530973 C31.916883,12.4336283 31.6703596,11.8204804 31.076175,11.3590392 C30.7474772,11.1061947 30.4124582,11.0872314 29.9826226,10.9418458 C29.6223192,10.8217446 29.1039879,10.6510746 28.7626479,10.8217446 C28.7310423,11.0429836 28.8005745,11.0240202 28.825859,11.1883692 C28.8385012,11.289507 28.8068956,11.4412137 28.8068956,11.5676359 C28.8068956,12.2439949 28.6109412,12.920354 28.2948855,13.5018963 C27.9661877,14.1087231 27.5110676,15.0758534 27.3720031,15.8470291 C26.9421675,15.7964602 26.7967819,15.6826802 26.3732673,15.9355247 C26.0572117,16.125158 25.9876795,16.2579014 25.7727616,16.5360303 C25.6273761,16.4728192 25.4946327,16.346397 25.3113204,16.2515803 C24.7993103,15.9860936 24.2556946,15.8027813 23.6551889,15.7332491 C22.9914721,15.6573957 22.3151131,15.7585335 21.6830018,15.9228824 C21.5060107,15.9671302 21.2910929,16.0556258 21.1330651,16.0745891 C20.9118261,15.783818 20.791725,15.6005057 20.4314216,15.4361568 C19.951017,15.2085967 19.837237,15.2718078 19.3757958,15.4108723 C19.2809791,15.2338812 19.2556946,14.9683944 19.1482357,14.7534766 C18.6804734,13.7989886 17.5110676,13.2996207 17.6627743,12.0290771 C17.7070221,11.6561315 17.757591,11.687737 17.8840132,11.4096081 C18.1621422,10.7774968 18.0546833,10.6005057 17.3340764,10.9292035 C16.803103,11.1757269 16.0888173,11.3590392 15.6842661,11.7383059 C15.0774393,12.3072061 14.8119525,12.7939317 14.4010802,13.7294564 C14.1798413,14.2351454 14.0787035,14.4058154 13.6804734,14.664981 C13.0483621,15.0758534 12.1823697,15.3982301 11.6261118,15.9102402 C11.4744051,16.0429836 11.3795884,16.1504425 11.2594873,16.3527181 C11.1393862,16.5423515 11.1141017,16.7130215 11.0129639,16.9026549 C10.172256,16.9342604 9.54646581,16.9848293 8.72472119,17.0922882 C7.99147214,17.1871049 7.18869085,17.2756005 6.56922182,16.9342604 C6.09513838,16.6687737 5.76011942,16.0493047 5.76644053,15.2654867 C5.76644053,14.1845765 6.15834951,13.6788875 6.24052397,13.2806574 C6.07617504,13.3249052 5.89918389,13.5271808 5.79172498,13.6283186 C5.64633939,13.7673831 5.52623825,13.8685209 5.39349489,13.9949431 C4.5907136,14.7724399 3.81953787,15.3982301 3.31384887,16.4538559 C2.98515102,17.136536 2.6690954,17.977244 2.68173762,18.8811631 C2.70702207,19.9747155 2.91561879,20.3982301 3.23167441,21.3337547 C2.47314091,20.0948167 2.05594748,17.8192162 2.88401322,16.3716814 C3.25695886,15.7206068 3.71207896,15.1390645 4.25569464,14.6523388 C4.43268579,14.494311 4.61599805,14.3362832 4.79931031,14.1782554 C5.32396265,13.7041719 5.96239502,13.2237674 6.53761626,12.7939317 L8.23799552,11.4285714 C8.4276289,11.2705436 8.64254672,11.1125158 8.81953787,10.954488 L9.35051133,10.4677623 C9.69817251,10.1580278 10.0395126,9.79140329 10.3618893,9.40581542 C10.9813584,8.64728192 11.6387541,7.94563843 12.2329386,7.16814159 C12.8650499,6.35271808 13.2948855,5.61946903 13.6425467,4.43109987 C13.9143546,3.48925411 14.0091713,2.67383059 13.9838868,1.69405815 C13.9775657,1.44121365 14.0787035,0.935524652 13.8574645,0.809102402 C13.7310423,0.948166877 13.7436845,1.14412137 13.6867945,1.35271808 C13.54773,1.86472819 13.3264911,2.42730721 13.0799677,2.85082174 C12.2961498,4.20353982 11.5565796,4.80404551 10.3808527,5.70164349 C9.8435581,6.10619469 9.34419021,6.517067 8.81953787,6.91529709 C8.29488554,7.30720607 7.71334318,7.63590392 7.13812195,8.00884956 C6.00032169,8.76106195 4.96998035,9.50063211 4.05341904,10.4740834 C2.59324205,12.0290771 1.50601069,13.5145386 1.17099173,15.9292035 C0.905505005,17.8571429 1.24052397,19.0834387 1.87895633,20.6384324 C2.6185265,22.414665 4.57175026,23.9506953 6.39855178,24.4437421 C7.60588427,24.7724399 7.85240766,24.6396966 8.87010677,24.7597977 C8.95228124,24.9304678 9.0850246,25.3666245 9.14823573,25.5562579 L9.47061246,26.3274336 C9.49589691,26.4285714 9.5401447,27.2123894 9.53382359,27.3514539 C9.4895758,28.4134008 9.29994243,29.0391909 8.87010677,29.9494311 C8.61726227,30.4804046 8.4276289,30.9039191 8.2759222,31.5360303 C7.92826101,32.977244 7.76391208,33.8874842 8.04204104,35.3413401 C8.14317884,35.8659924 8.16846329,35.7332491 7.95354546,36.1630847 C7.53003092,36.9911504 7.1634064,37.3830594 6.58818516,38.0720607 C5.96871613,38.8053097 4.57807138,40.1074589 3.80057454,40.7332491 C3.20638996,41.2136536 2.58059982,41.7446271 2.09387416,42.2882427 C1.51233181,42.9456384 0.798046092,43.9380531 0.431421566,44.9873578 C0.0711181529,46.0366625 -0.194368573,47.6169406 0.184898178,48.6915297 C0.551522704,48.7041719 0.507274917,48.5271808 0.589449379,48.1289507 C0.930789455,46.3906448 1.54393737,45.0821745 2.68173762,43.7926675 C3.56037226,42.806574 4.60335583,42.0101138 5.7537983,41.3147914 L6.82838743,40.5689001 C6.80310298,40.8280657 6.73357074,41.125158 6.70196518,41.4222503 C6.56922182,42.806574 6.80942409,44.2730721 7.28982865,45.5562579 C7.42257201,45.9102402 7.58692093,46.1883692 7.78919653,46.4917826 C7.88401322,46.6371681 7.90297656,46.6371681 8.10525216,46.6561315 C8.13053661,46.2579014 8.02939881,45.9734513 7.9725088,45.6068268 C7.80815987,44.5448799 7.73230652,43.4702908 7.80815987,42.3957016 C7.95354546,40.3603034 8.23167441,40.5120101 8.89539123,38.9064475 C8.90171234,38.9127686 8.90803345,38.9254109 8.91435456,38.931732 C9.05341904,39.159292 9.10398794,39.5006321 9.15455684,39.7534766 C9.32522688,40.7016435 9.35683244,41.6750948 9.4390069,42.6359039 C9.52118136,43.6156764 9.92573257,45.2149178 10.2986782,46.0240202 C10.8043672,47.1049305 11.3290195,47.6359039 12.365682,48.2111252 C13.1684633,48.653603 13.7626479,48.988622 14.7360992,49.0139064 C15.1216871,49.0202276 15.2417882,48.8369153 15.4061371,48.6156764 C15.6336972,48.6472819 16.0003217,48.9823009 16.240524,49.1087231 C16.7082863,49.3615676 17.8397654,49.5638432 18.3897022,49.5638432 C19.0407768,49.5575221 20.1532926,49.4816688 20.791725,49.3615676 C21.2658084,49.2730721 21.354304,49.0581542 21.7841396,49.2983565 C22.5426731,49.721871 22.422572,50.0948167 23.6741523,49.9620733 C24.3694747,49.8925411 25.1659348,49.6396966 25.8422939,49.4879899 C26.3732673,49.3678887 27.5679576,49.1529709 27.9788299,49.0265487 C28.2569589,48.9380531 28.2000688,48.9064475 28.4529133,49.0265487 C29.5464658,49.5385588 31.1267439,49.5322377 32.087553,48.8495575 C32.5426731,48.5271808 32.9661877,47.9456384 33.3264911,47.4462705 C34.2430524,46.1504425 35.399816,45.2402023 36.5945063,44.216182 C36.8283874,44.0202276 37.0180208,43.7989886 37.2266175,43.5461441 C37.6501321,43.034134 37.9472243,42.6864728 38.3138489,42.0037927 C39.0028501,40.7269279 39.2114469,39.5385588 39.6981725,38.1858407 C39.8625214,37.7433628 40.2923571,36.7003793 40.5641649,36.4475348 C40.7664405,36.7762326 40.8549361,38.2680152 40.9244683,38.7673831 C41.0256061,39.5638432 41.2089184,40.4235145 41.076175,41.2452592 C40.9560739,41.9721871 40.6842661,42.6548673 40.399816,43.2427307 C40.172256,43.710493 39.951017,44.102402 39.6539247,44.5069532 C39.5717503,44.6207332 39.4516491,44.7471555 39.4832547,44.9494311 C39.8309159,44.9557522 40.4187793,44.0960809 40.6210549,43.8558786 C40.9497528,43.4702908 41.2278817,43.0151707 41.4870474,42.5031606 C41.7335707,42.0164349 41.9674519,41.4854614 42.1444431,40.9481669 C42.2455809,40.6510746 42.3214342,40.3982301 42.3972876,40.0821745 C42.4415353,39.8988622 42.5679576,39.3931732 42.6374898,39.2477876 C42.8650499,39.3426043 43.9269968,40.7206068 44.1988046,41.0493047 C44.6855303,41.6434893 45.1090448,42.2692794 45.5009538,43.0783818 C46.2847718,44.6902655 46.2342029,45.5309735 46.5945063,47.0417193 C46.6513963,47.300885 46.7335707,47.4652339 46.7714974,47.7243995 C46.803103,47.9456384 46.8157452,48.1921618 46.916883,48.369153 C47.2329386,48.3881163 47.2708653,48.0530973 47.3720031,47.7876106 C47.6690954,46.9785082 47.5742787,45.9608091 47.4604987,45.11378 C47.1697275,42.920354 46.6261118,41.2262958 45.342926,39.3742099 C44.6539247,38.369153 43.1052522,36.7193426 42.7133432,36.0935525 C42.4668198,35.6953224 42.2329386,35.2718078 42.0116997,34.82933 C41.354304,33.4892541 40.9181472,31.9785082 40.3745316,30.562579 Z" id="Shape" fill="#1E1F2A"/>
                </g>
                <g id="id5" transform="translate(21.310056, 26.687737)">
                    <rect id="Rectangle" x="0" y="0" width="10.11378" height="11.1314791"/>
                    <path d="M7.55372946,4.18457649 C8.19848293,4.27307206 7.57901391,5.65107459 6.53603034,5.58786346 C5.26548673,5.51201011 5.13906448,4.20353982 5.61314791,4.07079646 C5.63211125,4.53855879 5.79013906,4.82932996 6.08723135,5.01264223 C6.32111252,5.14538559 7.02275601,5.29709229 7.02275601,4.87989886 C6.92793932,4.78508217 6.90897598,4.81668774 6.8204804,4.75347661 C6.75726928,3.97597977 7.45259166,4.42477876 7.48419722,4.43109987 C7.58533502,4.27307206 7.47787611,4.31099874 7.55372946,4.18457649 Z M3.54614412,6.48546144 C3.2806574,6.42225032 2.57901391,5.98609355 2.33881163,5.84070796 C2.02275601,5.65107459 1.32743363,5.12010114 1.15044248,5.22756005 C1.18836915,5.39823009 1.18836915,5.30973451 1.47281922,5.51201011 C1.58659924,5.59418458 1.70037927,5.67003793 1.8204804,5.7585335 C2.33881163,6.14412137 3.10366625,7.18710493 3.50189633,7.73072061 C3.88116308,8.24273072 4.09608091,8.6346397 4.32996207,9.33628319 C4.43109987,9.65233881 4.5448799,9.92414665 4.65233881,10.2402023 C4.73451327,10.4804046 4.7471555,11.0619469 4.97471555,11.125158 C5.08849558,10.954488 4.94310999,10.2465234 4.92414665,9.98103666 C4.86725664,9.3426043 5.12010114,8.0278129 4.9494311,7.55372946 C4.80404551,7.16182048 4.51959545,7.10493047 4.27307206,6.88369153 C4.28571429,6.57395702 4.84197219,6.05562579 5.03160556,5.9102402 C5.48040455,5.56890013 5.57522124,5.74589128 6.40960809,5.84702908 C6.96586599,5.9102402 7.45891277,5.7585335 7.78128951,5.49304678 C8.14159292,5.19595449 8.24905183,4.8988622 8.3817952,4.33628319 L8.79898862,4.32996207 C8.91908976,4.75347661 8.55878635,5.41719343 8.32490518,5.61314791 C8.2300885,5.68900126 8.03413401,5.77117573 8.0278129,5.91656131 C8.33754741,5.96713021 8.86219975,5.39823009 8.98230088,5.2528445 C9.25410872,4.92414665 9.55120101,4.77243995 9.51959545,4.14664981 C9.7471555,4.16561315 10.0316056,4.27307206 10.1074589,4.03286979 C10.0063211,3.88116308 9.09608091,3.69785082 8.85587863,3.64096081 C8.65360303,3.59671302 7.55372946,3.41972187 7.48419722,3.36283186 C7.59797724,3.26801517 8.08470291,2.90771176 7.97724399,2.66118837 C7.80025284,2.46523388 5.32869785,3.4323641 4.86093552,3.66624526 C4.70290771,3.74841972 4.57016435,3.8874842 4.39949431,3.81163085 C4.23514539,3.74209861 4.06447535,3.62199747 4.00126422,3.50821745 C4.1908976,3.1289507 4.85461441,2.61694058 5.20859671,2.38305942 C5.44247788,2.22503161 5.64475348,2.08596713 5.91656131,1.93426043 C6.14412137,1.80151707 6.5676359,1.68773704 6.68141593,1.49810367 C6.59292035,1.33375474 6.32743363,1.23893805 6.11883692,1.20733249 L4.75347661,1.20101138 C4.66498104,1.00505689 4.62073325,0.834386852 4.51959545,0.663716814 C4.43742099,0.518331226 4.28571429,0.316055626 4.12136536,0.316055626 C4.0897598,0.676359039 4.51959545,1.11883692 3.79898862,2.49051833 C3.59039191,2.88874842 3.52085967,2.96460177 3.1289507,3.16687737 C2.78128951,3.35018963 2.46523388,3.45764855 2.00379267,3.40075853 C1.63084703,3.35018963 1.20101138,3.26169406 1.04298357,3.02149178 C0.859671302,2.72439949 0.739570164,2.35777497 0.720606827,1.95954488 C0.701643489,1.54235145 0.809102402,1.15676359 0.973451327,0.865992415 C1.13780025,0.575221239 1.48546144,0.12642225 1.52338812,0.00632111252 C1.2136536,0.0695322377 1.17572693,0.145385588 0.998735777,0.322376738 C-0.00632111252,1.34007585 -0.619469027,3.16055626 1.00505689,4.01390645 C1.40960809,4.22250316 1.81415929,4.32364096 2.35145386,4.27939317 C2.81289507,4.2414665 2.89506953,4.05183312 3.5335019,4.57016435 C3.70417193,4.70922882 3.81795196,4.79140329 3.96333755,4.9494311 C4.3931732,5.38558786 4.21618205,5.39190898 3.81163085,5.92288243 C3.64096081,6.14412137 3.66624526,6.21997472 3.54614412,6.48546144 Z" id="Shape" fill="#1E1F2A"/>
                </g>
                <g id="id6" transform="translate(14.002850, 35.006321)">
                    <rect id="Rectangle" x="0" y="0" width="8.59671302" height="5.15802781"/>
                    <path d="M7.03539823,1.69405815 C6.69405815,1.4159292 6.61188369,1.20733249 6.011378,1.08723135 C5.38558786,0.960809102 5.09481669,1.05562579 4.50063211,1.04930468 C3.97597977,1.03666245 3.52085967,1.05562579 3.02149178,0.910240202 C2.33881163,0.714285714 2.29456384,0.726927939 1.58659924,0.85335019 C1.62452592,0.720606827 1.68773704,0.581542351 1.75094817,0.486725664 C1.82680152,0.366624526 1.91529709,0.328697851 1.95322377,0.208596713 C1.69405815,0.0948166877 0.916561315,0.745891277 0.632111252,1.30847029 L0.480404551,1.5676359 C0.379266751,1.011378 0.107458913,0.935524652 0.1011378,1.22629583 C0.0948166877,1.30214918 0.170670038,1.47914033 0.158027813,1.72566372 C0.139064475,2.24399494 -0.107458913,3.12262958 0.0695322377,3.79898862 C0.17699115,4.20353982 0.398230088,4.48166877 0.758533502,4.62705436 C1.3147914,4.86093552 1.47914033,4.77876106 1.94690265,4.5954488 L1.9216182,4.96839444 C2.25663717,4.97471555 2.49051833,4.43742099 2.52844501,4.15929204 C2.57901391,3.83059418 2.47155499,3.18584071 2.33881163,2.93931732 C2.18078382,2.65486726 1.72566372,2.36409608 1.50442478,2.77496839 C1.29582807,3.16055626 1.4664981,3.59039191 1.5676359,3.95069532 C1.08723135,4.20353982 0.707964602,3.66624526 0.752212389,3.1795196 C0.80278129,2.61061947 0.87863464,2.18710493 1.17572693,1.8204804 C1.42225032,1.517067 1.87737042,1.23261694 2.45891277,1.30214918 C2.83185841,1.34007585 2.82553729,1.44121365 3.10366625,1.53603034 C4.30467762,1.95954488 5.28445006,1.28318584 6.20733249,1.77623262 C7.10493047,2.24399494 6.68773704,4.81668774 5.27180784,4.20353982 C5.29077118,3.88116308 5.73957016,3.64728192 5.59418458,3.09734513 C5.48040455,2.67383059 4.97471555,2.61694058 4.65865992,2.86978508 C4.27307206,3.1795196 4.15929204,4.1403287 4.27939317,4.65865992 C4.3426043,4.8988622 4.38685209,5.10745891 4.57016435,5.1517067 C4.6460177,5.1011378 4.77243995,4.78508217 4.81036662,4.72187105 C5.31605563,4.77876106 5.41087231,5.20859671 6.23893805,4.98735777 C6.37168142,4.95575221 6.46017699,4.91782554 6.5676359,4.8482933 C6.87737042,4.65865992 6.99115044,4.72187105 7.36409608,4.27939317 C7.93299621,3.59039191 7.79393173,2.80025284 8.43868521,2.14917826 C8.55878635,2.02907712 8.64096081,1.93426043 8.55246523,1.85840708 C8.32490518,1.77623262 7.95828066,2.17446271 7.85082174,2.31352718 C7.80657396,1.46017699 7.78761062,1.32743363 7.35777497,0.764854614 C6.73198483,-0.0442477876 5.13906448,-0.0379266751 4.15929204,0.195954488 C3.81163085,0.284450063 3.12262958,0.297092288 2.76864728,0.145385588 C2.63590392,0.0884955752 2.54740834,0.00632111252 2.38938053,0.00632111252 C2.41466498,0.17699115 2.66750948,0.290771176 2.83185841,0.398230088 C4.21618205,1.30214918 5.24020228,-0.0695322377 6.35271808,0.644753477 C6.6687737,0.85335019 7.00379267,1.15676359 7.03539823,1.69405815 Z" id="Path" fill="#1E1F2A"/>
                </g>
                <g id="id7" transform="translate(18.585657, 17.616941)">
                    <rect id="Rectangle" x="0" y="0" width="4.71554994" height="15.7648546"/>
                    <path d="M0.00632111252,4.02022756 C0.360303413,4.03286979 1.76359039,3.29962073 2.19974716,3.02149178 C2.32616941,2.93931732 2.76864728,2.66750948 2.90139064,2.62958281 L2.57269279,3.46396966 C2.21871049,4.4437421 1.96586599,5.2022756 1.79519595,6.27686473 L1.22629583,5.86599241 C1.10619469,5.79646018 0.998735777,5.73957016 0.897597977,5.68900126 C0.85335019,5.66371681 0.777496839,5.62579014 0.733249052,5.61314791 C0.284450063,5.49936789 0.758533502,5.91656131 0.87863464,6.68773704 C1.13147914,8.36283186 0.865992415,8.71681416 0.948166877,9.43742099 C0.998735777,9.83565107 1.1125158,10.2654867 1.19469027,10.6826802 C1.35903919,11.6624526 1.18836915,13.6662453 0.859671302,14.6586599 C0.796460177,14.8482933 0.448798989,15.5941846 0.518331226,15.7016435 C0.518331226,15.7079646 0.530973451,15.8280657 0.726927939,15.6890013 L1.21997472,15.1517067 C1.4664981,14.8798989 1.5676359,14.6713021 1.7193426,14.2857143 C2.59797724,12.0353982 2.14285714,10.954488 2.43994943,9.55120101 C2.53476612,9.10872314 2.58533502,8.88116308 2.80025284,8.54614412 C2.90771176,8.36915297 3.3312263,7.85714286 3.15423515,7.59165613 C2.83185841,7.28192162 2.35145386,8.04045512 2.19974716,8.16687737 C2.20606827,7.79393173 2.22503161,7.49683944 2.16182048,7.13653603 C2.11757269,6.86472819 2.14285714,6.8710493 2.25663717,6.66245259 C3.08470291,5.13906448 3.50821745,3.55878635 4.01390645,1.90897598 C4.12768647,1.54235145 4.22250316,1.30847029 4.37420986,0.973451327 C4.47534766,0.745891277 4.76611884,0.271807838 4.69026549,0.012642225 C4.43742099,-0.0505689001 4.31099874,0.189633375 4.07079646,0.455120101 C2.98356511,1.67509482 2.79393173,1.6687737 1.83312263,2.58533502 C1.65613148,2.75600506 1.44121365,2.93299621 1.23893805,3.0783818 L0.259165613,3.75474083 C0.145385588,3.83059418 -8.67361738e-19,3.8874842 0.00632111252,4.02022756 Z" id="Path" fill="#1E1F2A"/>
                </g>
                <g id="id8" transform="translate(21.246845, 32.331137)">
                    <rect id="Rectangle" x="0" y="0.00135346072" width="5.67635904" height="9.70922882"/>
                    <path d="M5.65107459,9.69794006 C5.82806574,9.01525991 4.38053097,4.83700454 3.88116308,3.81930542 C3.30594185,2.63093627 3.11630847,2.47290845 2.03539823,1.83447609 C1.45385588,1.4868149 0.568900126,0.823098088 0.271807838,0.216271286 C-0.012642225,-0.365271065 -0.221238938,0.285803524 0.436156764,1.45520934 C1.33375474,3.04812969 2.43362832,2.99123968 3.27433628,4.39452666 C4.06447535,5.7282814 4.79140329,8.53485536 5.39823009,9.47670112 C5.505689,9.63472893 5.53097345,9.60312337 5.65107459,9.69794006 Z" id="Path" fill="#1E1F2A"/>
                </g>
                <g id="id9" transform="translate(27.447856, 34.848293)">
                    <rect id="Rectangle" x="0" y="0" width="1.70685841" height="6.54235145"/>
                    <path d="M0,4.02654867 C0,4.46902655 0.0724920559,4.98103666 0.158164486,5.4045512 C0.197705607,5.61314791 0.230656541,5.8091024 0.303148597,5.99873578 C0.349279906,6.09987358 0.38223084,6.18204804 0.415181775,6.28318584 C0.487673831,6.51074589 0.461313083,6.4664981 0.560165886,6.53603034 C0.711740185,6.42225032 0.74469112,5.10745891 0.757871493,4.83565107 C0.810592989,3.85587863 0.988528035,2.43362832 1.27190607,1.50442478 C1.36416869,1.18204804 1.75298972,0.259165613 1.69367803,0 C1.37734906,0.1011378 0.731510746,1.25790139 0.520624765,1.67509482 C0.164754672,2.37673831 0,3.15423515 0,4.02654867 Z" id="Path" fill="#1E1F2A"/>
                </g>
                <g id="id10" transform="translate(28.318691, 26.162719)">
                    <rect id="Rectangle" x="0.00147855462" y="0.000365765749" width="3.27433628" height="4.31731985"/>
                    <path d="M3.13675036,4.30504339 C3.44016376,3.94473998 3.13042925,3.15460091 2.92815365,2.85118751 C2.37821686,2.02944288 0.804259844,1.30251494 0.31753418,0.208962479 C0.254323055,0.0698980034 0.229038605,-0.00595534677 0.0583685673,0.000365765749 C-0.118622583,0.430201417 0.146864142,1.18241381 0.323855293,1.51111166 C1.05710434,2.88911419 2.08112457,2.76269194 2.70691471,3.81199661 C2.81437362,3.98898776 2.93447476,4.27975894 3.13675036,4.30504339 Z" id="Path" fill="#1E1F2A"/>
                </g>
                <g id="id11" transform="translate(22.560339, 23.855879)">
                    <rect id="Rectangle" x="0.00129750053" y="0" width="3.30594185" height="2.10493047"/>
                    <path d="M0.0139397256,2.09228824 C0.127719751,2.08596713 0.254142001,1.94690265 0.418490927,1.78887484 C1.93555793,0.347661188 2.20104466,1.25158028 2.87108258,1.28950695 C3.40837715,1.3147914 3.37045047,0.758533502 3.12392708,0.429835651 C2.44124693,-0.461441214 0.886253253,0.202275601 0.342637576,1.04298357 C0.235178664,1.2136536 -0.0682347371,1.85208597 0.0139397256,2.09228824 Z" id="Path" fill="#1E1F2A"/>
                </g>
                <g id="id12" transform="translate(22.827123, 20.018502)">
                    <rect id="Rectangle" x="0" y="0.000461460476" width="3.62831858" height="2.70543616"/>
                    <path d="M0,0.0573514731 C0.0316055626,0.209058173 0.0568900126,0.133204823 0.227560051,0.209058173 C0.562579014,0.348122649 0.644753477,1.20779395 1.33375474,1.85254743 C1.62452592,2.13067638 1.9721871,2.22549307 2.40202276,2.37087865 C2.59797724,2.43408978 3.49557522,2.83231987 3.59671302,2.64268649 C3.79266751,2.28238308 2.44627054,1.76405185 1.89633375,1.25204174 C1.62452592,0.999197238 0.493046776,-0.283988603 0,0.0573514731 Z" id="Path" fill="#1E1F2A"/>
                </g>
                <g id="id13" transform="translate(15.935423, 24.140329)">
                    <rect id="Rectangle" x="0.00168760366" y="0" width="2.97092288" height="2.37041719"/>
                    <path d="M2.94732604,2.35777497 C3.13695941,1.34639697 1.44290126,-0.809102402 0.210284317,0.328697851 C0.128109854,0.410872314 -0.0172757339,0.587863464 0.00168760366,0.777496839 C0.0269720537,0.992414665 0.222926542,1.04298357 0.437844367,0.97977244 C0.924570031,0.840707965 1.08891896,0.85335019 1.54403906,1.0619469 C1.87273691,1.21997472 2.1192603,1.40960809 2.32785701,1.63084703 C2.49220593,1.81415929 2.70712376,2.33881163 2.94732604,2.35777497 Z" id="Path" fill="#1E1F2A"/>
                </g>
                <g id="id14" transform="translate(20.937111, 44.486395)">
                    <rect id="Rectangle" x="0" y="0.00328072232" width="1.70685841" height="1.70357768"/>
                    <path d="M0.317555052,0.0552983616 C-0.224934829,0.341395377 0.0661573026,0.80955413 0.317555052,1.10865556 C0.51602696,1.34273493 0.873276394,1.8238981 1.38930335,1.64183636 C2.23611683,1.34273493 1.0717483,-0.321829523 0.317555052,0.0552983616 Z" id="Path" fill="#1E1F2A"/>
                </g>
                <g id="id15" transform="translate(21.720929, 43.153169)">
                    <rect id="Rectangle" x="0" y="0.00222955253" width="1.70685841" height="1.70462885"/>
                    <path d="M1.6489988,1.56150246 C1.80811272,1.03293537 1.51881468,0.781866005 1.21505175,0.451511576 C0.998078221,0.20044221 0.549666267,-0.248839814 0.130184116,0.174013856 C-0.361622544,0.71579512 0.650920579,2.09006954 1.6489988,1.56150246 Z" id="Path" fill="#1E1F2A"/>
                </g>
                <g id="id16" transform="translate(18.451270, 42.950057)">
                    <rect id="Rectangle" x="0.00385040062" y="0.00427038242" width="1.70300801" height="1.70258802"/>
                    <path d="M0.344452002,0.046835083 C-0.203472313,0.31641152 0.00385040062,0.770434994 0.270408176,1.09676436 C0.448113359,1.33796434 0.818332491,1.84874074 1.38106557,1.63591724 C2.23997396,1.3237761 1.09969903,-0.293682522 0.344452002,0.046835083 Z" id="Path" fill="#1E1F2A"/>
                </g>
                <g id="id17" transform="translate(13.023078, 44.234540)">
                    <rect id="Rectangle" x="0" y="0.0013967933" width="1.70685841" height="1.70546161"/>
                    <path d="M0.815666849,0.0888563632 C-0.1812593,0.642766973 -0.347413658,2.07127328 0.830771791,1.59024565 C1.10266074,1.48820948 1.58601887,1.00718185 1.66154358,0.730226543 C1.812593,0.176315933 1.32923487,-0.173522347 0.815666849,0.0888563632 Z" id="Path" fill="#1E1F2A"/>
                </g>
                <g id="id18" transform="translate(22.536352, 45.335019)">
                    <rect id="Rectangle" x="0" y="0" width="1.70685841" height="1.70685841"/>
                    <path d="M0.362875409,0.0334678119 C-0.537593199,0.401613743 0.483833879,1.92439918 1.343983,1.63992278 C2.31165076,1.32197857 1.02142708,-0.200806871 0.362875409,0.0334678119 Z" id="Path" fill="#1E1F2A"/>
                </g>
                <g id="id19" transform="translate(15.277928, 42.838180)">
                    <rect id="Rectangle" x="0.00433497174" y="0" width="1.70252344" height="1.70685841"/>
                    <path d="M1.63016816,0.129090132 C1.06266035,-0.114746784 0.878603763,-3.83217763e-14 0.495152539,0.401613743 C0.295757902,0.602420614 -0.210397714,1.16181118 0.0963632655,1.56342493 C0.47981449,2.02241206 1.96760524,1.13312449 1.63016816,0.129090132 Z" id="Path" fill="#1E1F2A"/>
                </g>
                <g id="id20" transform="translate(19.742420, 43.742099)">
                    <rect id="Rectangle" x="0" y="0" width="1.70685841" height="1.70685841"/>
                    <path d="M0.379301868,0.115719214 C-0.068963976,0.376087446 -0.103445964,0.679850382 0.224132922,1.17165704 C0.379301868,1.40309547 0.896531689,1.86597233 1.4310025,1.59113919 C2.06891928,1.28737626 1.41376151,-0.433947053 0.379301868,0.115719214 Z" id="Path" fill="#1E1F2A"/>
                </g>
                <g id="id21" transform="translate(14.012710, 43.625940)">
                    <rect id="Rectangle" x="0.00680256988" y="0.00566508286" width="1.70005584" height="1.70119332"/>
                    <path d="M0.918650701,0.0959939319 C0.331358684,0.382035287 -0.75049503,2.053119 0.795010276,1.60147475 C1.9077741,1.27026897 2.00050442,-0.415869546 0.918650701,0.0959939319 Z" id="Path" fill="#1E1F2A"/>
                </g>
                <g id="id22" transform="translate(21.645075, 46.491783)">
                    <rect id="Rectangle" x="0" y="0" width="1.70685841" height="1.70685841"/>
                    <path d="M0.0483073134,0.967219764 C0.28984388,1.93443953 1.96449741,1.97236971 1.65855109,0.815499017 C1.40091209,-0.0758603736 -0.273741443,-0.493092429 0.0483073134,0.967219764 Z" id="Path" fill="#1E1F2A"/>
                </g>
                <g id="id23" transform="translate(20.248109, 45.319522)">
                    <rect id="Rectangle" x="0" y="0.00730900196" width="1.70685841" height="1.69954941"/>
                    <path d="M0.30543782,0.120612296 C-0.539007918,0.687128764 0.664776432,1.85253407 1.38345366,1.65829985 C2.15603167,1.43169327 1.31158593,-0.494462727 0.30543782,0.120612296 Z" id="Path" fill="#1E1F2A"/>
                </g>
                <g id="id24" transform="translate(12.650132, 43.202830)">
                    <rect id="Rectangle" x="0" y="0.00515930713" width="1.70685841" height="1.7016991"/>
                    <path d="M0.920364827,0.0877660596 C-0.368145931,0.831226831 -0.200806871,2.05380677 0.870163109,1.5746876 C2.10847215,1.01296169 1.77379403,-0.358310404 0.920364827,0.0877660596 Z" id="Path" fill="#1E1F2A"/>
                </g>
                <g id="id25" transform="translate(20.349247, 42.541087)">
                    <rect id="Rectangle" x="0" y="0" width="1.70685841" height="1.70685841"/>
                    <path d="M1.61606807,1.58368306 C1.97922943,0.263947176 0.653690454,-0.404719004 0.145264545,0.263947176 C-0.326845227,0.967806313 0.599216249,1.98840206 1.61606807,1.58368306 Z" id="Path" fill="#1E1F2A"/>
                </g>
                <g id="id26" transform="translate(14.078703, 45.000000)">
                    <rect id="Rectangle" x="0" y="0" width="1.70685841" height="1.70685841"/>
                    <path d="M0.057534553,1.58368306 C1.20822561,2.0411915 1.97535299,0.862227443 1.57261112,0.281543655 C1.07397832,-0.422315482 -0.287672765,0.263947176 0.057534553,1.58368306 Z" id="Path" fill="#1E1F2A"/>
                </g>
                <g id="id27" transform="translate(11.948489, 44.870698)">
                    <rect id="Rectangle" x="0" y="0.00943183791" width="1.70685841" height="1.69742657"/>
                    <path d="M0.656484003,0.0715328099 C-0.300106973,0.48553929 -0.168810172,1.9552623 1.0503744,1.60335679 C2.11950549,1.31355225 1.76312846,-0.363173994 0.656484003,0.0715328099 Z" id="Path" fill="#1E1F2A"/>
                </g>
                <g id="id28" transform="translate(23.200069, 44.146045)">
                    <rect id="Rectangle" x="0" y="0.00191785514" width="1.70685841" height="1.70494055"/>
                    <path d="M1.64996313,1.50627717 C1.89650934,0.36296409 0.606882989,-0.399244628 0.132755654,0.222557221 C-0.322406588,0.904533441 0.512057522,2.10802089 1.64996313,1.50627717 Z" id="Path" fill="#1E1F2A"/>
                </g>
                <g id="id29" transform="translate(13.901712, 42.648546)">
                    <rect id="Rectangle" x="0" y="0" width="1.70685841" height="1.70685841"/>
                    <path d="M1.6225691,0.166522771 C0.42144652,-0.457937621 -0.168578608,1.10321336 0.042144652,1.49870494 C0.358229542,1.99827326 1.98079865,1.39462821 1.6225691,0.166522771 Z" id="Path" fill="#1E1F2A"/>
                </g>
                <g id="id30" transform="translate(13.010435, 45.820027)">
                    <rect id="Rectangle" x="0" y="0.00600247879" width="1.70685841" height="1.70085593"/>
                    <path d="M0.596372215,0.116447669 C-0.575807655,0.867474962 0.185081032,2.01610494 1.21330899,1.55223514 C2.11814959,1.13254342 1.62460017,-0.435778282 0.596372215,0.116447669 Z" id="Path" fill="#1E1F2A"/>
                </g>
            </g>
        </g>
    </g>
</svg>