<?xml version="1.0" standalone="no"?>
<!DOCTYPE svg PUBLIC "-//W3C//DTD SVG 20010904//EN"
 "http://www.w3.org/TR/2001/REC-SVG-20010904/DTD/svg10.dtd">
<svg version="1.0" xmlns="http://www.w3.org/2000/svg"
 width="1288.000000pt" height="1288.000000pt" viewBox="0 0 1288.000000 1288.000000"
 preserveAspectRatio="xMidYMid meet">
<metadata>
Created by potrace 1.14, written by Peter Selinger 2001-2017
</metadata>
<g transform="translate(0.000000,1288.000000) scale(0.100000,-0.100000)"
fill="#000000" stroke="none">
<path d="M7879 10908 c-29 -96 -26 -271 6 -433 8 -38 16 -81 19 -95 2 -14 12
-52 22 -85 10 -33 19 -64 20 -70 5 -24 68 -181 75 -190 5 -5 9 -17 9 -26 0 -9
7 -22 15 -29 8 -7 13 -16 10 -20 -3 -4 2 -13 10 -20 8 -7 15 -18 15 -25 0 -18
125 -211 184 -285 133 -164 282 -293 531 -460 259 -173 347 -238 445 -332 48
-44 110 -122 110 -137 0 -6 4 -11 9 -11 10 0 63 -113 70 -150 12 -62 4 -246
-12 -290 -6 -17 -16 -61 -16 -73 -1 -19 -136 -237 -147 -237 -5 0 8 32 27 65
20 33 65 150 73 187 3 13 10 43 16 68 16 62 16 185 0 251 -26 112 -126 277
-212 351 -94 81 -156 127 -162 121 -3 -4 -6 -1 -6 5 0 7 -9 12 -20 12 -11 0
-20 -4 -20 -10 0 -5 3 -10 8 -10 4 0 12 -10 18 -23 6 -12 24 -47 40 -77 42
-79 43 -158 3 -239 -44 -87 -92 -111 -228 -114 l-81 -1 -40 39 c-22 22 -40 45
-40 52 0 7 -4 13 -8 13 -5 0 -15 12 -23 28 -8 15 -18 32 -24 39 -5 7 -16 19
-22 27 -7 8 -13 18 -13 22 0 13 -103 135 -143 169 -23 20 -76 52 -117 71 -250
118 -279 141 -391 305 -24 35 -65 85 -91 110 -47 45 -60 51 -188 84 -8 2 -15
4 -15 5 0 10 -104 15 -113 5 -3 -3 -5 -36 -5 -75 1 -103 -23 -190 -89 -324
-32 -66 -60 -127 -62 -135 -2 -9 -6 -23 -9 -31 -3 -8 -11 -32 -17 -53 -11 -36
-13 -37 -53 -33 -51 4 -91 -14 -135 -62 -30 -32 -35 -35 -54 -23 -75 47 -154
78 -225 88 -82 12 -215 3 -267 -17 -16 -6 -44 -13 -62 -16 -29 -4 -38 0 -64
30 -42 48 -107 72 -159 59 l-40 -10 -16 50 c-17 52 -45 94 -103 156 -103 110
-128 211 -78 311 19 39 23 56 16 74 -7 18 -14 23 -30 19 -11 -3 -23 -9 -26
-14 -3 -5 -12 -9 -21 -9 -28 0 -190 -77 -223 -106 -52 -46 -103 -122 -157
-235 -43 -90 -58 -111 -99 -141 -27 -20 -59 -39 -71 -42 -13 -4 -23 -12 -23
-17 0 -5 -6 -9 -13 -9 -7 0 -34 -13 -60 -30 -26 -16 -47 -27 -47 -25 0 4 -18
-9 -59 -45 -23 -21 -75 -90 -67 -90 4 0 0 -10 -8 -22 -12 -16 -27 -23 -54 -24
-67 -1 -237 -16 -244 -20 -16 -10 -201 -12 -236 -2 -100 28 -153 105 -157 230
-3 72 15 178 35 203 4 6 10 23 14 38 l7 29 -28 -20 c-59 -43 -271 -260 -306
-315 -37 -56 -87 -157 -93 -187 -2 -8 -10 -40 -19 -70 -18 -61 -21 -216 -6
-267 5 -18 8 -33 6 -33 -2 0 5 -24 16 -52 10 -29 19 -57 19 -62 0 -12 -13 1
-17 17 -1 7 -14 45 -28 85 -14 39 -27 89 -29 110 -3 20 -5 37 -6 37 -7 0 -4
168 3 200 5 22 10 48 12 57 9 45 125 251 125 223 0 -5 13 9 29 31 16 21 47 53
68 70 21 18 54 46 73 63 19 17 80 66 135 108 55 43 105 82 111 88 6 5 29 24
50 40 21 17 46 38 56 48 10 9 18 14 18 10 0 -5 6 -1 13 7 7 8 35 33 62 55 104
83 233 207 293 282 35 44 56 69 99 117 14 16 55 66 90 110 36 45 71 89 79 99
8 9 28 43 46 75 18 31 37 60 42 64 6 4 7 8 2 8 -5 0 -3 7 4 15 7 8 9 15 5 15
-4 0 -3 6 3 13 9 11 49 129 58 172 2 11 7 34 11 50 11 49 12 64 18 195 8 183
-8 224 -40 103 -38 -146 -122 -289 -235 -401 -93 -94 -397 -327 -565 -435
-242 -155 -404 -289 -545 -453 -91 -104 -197 -269 -192 -296 1 -5 -2 -8 -6 -8
-6 0 -42 -84 -47 -110 -1 -3 -7 -23 -13 -46 -39 -134 -55 -313 -40 -428 13
-93 35 -192 48 -211 3 -5 13 -30 20 -55 7 -25 17 -49 20 -55 4 -5 10 -22 14
-37 3 -16 11 -28 16 -28 6 0 10 -7 10 -15 0 -25 114 -175 165 -216 11 -10 34
-29 50 -43 65 -57 239 -159 272 -159 7 0 13 -3 13 -7 0 -4 6 -7 13 -8 6 0 37
-7 67 -16 76 -21 144 -29 286 -35 15 -1 25 -14 38 -53 11 -29 30 -79 43 -112
20 -48 24 -75 24 -155 0 -53 -3 -107 -5 -121 -3 -14 -9 -41 -12 -60 -8 -42
-35 -114 -74 -195 -48 -101 -68 -167 -100 -335 -18 -91 -21 -276 -6 -340 3
-14 8 -37 11 -52 21 -95 -295 -464 -601 -703 -95 -74 -266 -261 -310 -339 -57
-100 -133 -276 -119 -276 3 0 0 -11 -5 -24 -5 -14 -12 -58 -17 -98 -27 -265
43 -392 81 -145 1 7 5 18 9 25 5 6 6 12 3 12 -7 0 48 159 76 215 77 159 246
357 388 455 19 13 40 29 47 35 35 29 43 35 47 35 6 0 159 101 166 109 3 3 20
14 38 24 l33 19 -5 -24 c-24 -108 -22 -256 5 -408 14 -81 13 -78 21 -100 3 -8
16 -46 28 -85 27 -81 85 -178 103 -172 14 4 16 37 6 87 -40 193 -44 477 -9
639 7 29 34 100 61 157 27 58 49 109 49 115 0 8 4 8 14 0 8 -6 17 -33 22 -59
4 -26 9 -54 11 -62 3 -15 11 -74 18 -140 2 -19 6 -69 9 -110 11 -159 19 -209
52 -339 59 -232 145 -373 279 -459 28 -17 55 -36 62 -42 7 -5 17 -10 24 -10 6
0 23 -9 37 -19 15 -10 29 -19 32 -19 3 0 19 -6 35 -12 60 -24 125 -38 167 -36
56 3 70 7 86 29 18 23 22 22 84 -18 29 -20 71 -40 93 -46 22 -6 47 -14 55 -17
37 -13 74 -16 205 -16 157 0 245 8 323 28 65 18 92 9 168 -57 11 -9 32 -20 45
-23 29 -8 143 -7 184 0 45 9 70 14 73 16 2 3 2 3 57 15 22 4 45 10 50 11 12 4
191 43 225 49 14 3 51 11 82 20 53 13 61 13 100 -4 128 -54 302 -50 417 8 56
29 107 81 206 210 107 140 178 211 390 391 64 54 103 97 175 192 95 125 141
231 230 518 18 58 36 110 40 115 5 6 9 13 9 17 3 19 16 49 54 126 34 70 42 81
50 66 6 -10 11 -27 12 -39 1 -11 4 -33 8 -50 3 -16 8 -55 11 -85 3 -30 9 -82
12 -115 4 -33 7 -70 7 -82 1 -13 4 -23 8 -23 4 0 7 -53 7 -118 0 -98 -4 -130
-25 -192 -13 -41 -25 -81 -25 -87 -1 -7 -5 -13 -10 -13 -4 0 -8 -6 -8 -14 0
-19 -58 -129 -104 -198 -20 -32 -36 -65 -33 -75 3 -14 17 -4 68 47 56 58 199
250 185 250 -3 0 10 30 28 68 33 66 93 235 99 279 2 12 6 26 10 29 4 4 7 17 7
29 0 37 11 36 50 -3 29 -29 217 -262 248 -308 80 -116 169 -335 187 -459 3
-16 7 -41 10 -55 3 -14 8 -36 10 -50 2 -14 13 -64 25 -110 12 -47 23 -98 25
-115 2 -16 4 -32 5 -35 1 -3 2 -8 1 -12 0 -5 8 -8 19 -8 15 0 27 12 40 42 10
23 16 46 14 50 -3 4 -2 8 3 8 21 0 21 257 0 355 -3 11 -8 43 -11 70 -4 28 -16
86 -27 130 -11 44 -22 85 -23 90 -27 122 -199 441 -276 515 -3 3 -21 25 -40
50 -19 25 -44 54 -55 66 -46 48 -75 84 -75 94 0 5 -4 10 -8 10 -12 0 -106 127
-137 185 -14 28 -37 68 -49 91 -30 55 -87 196 -152 384 -30 85 -59 164 -64
175 -43 100 -121 357 -125 412 -1 22 3 65 10 95 28 112 26 109 85 127 30 10
104 41 163 69 60 29 110 52 112 52 5 0 129 73 135 80 3 3 27 23 55 45 27 22
61 52 75 66 60 63 98 107 125 144 17 22 32 42 35 45 19 17 106 182 137 260 36
88 70 201 78 253 13 84 12 280 -2 351 -37 201 -231 453 -473 615 -132 89 -175
111 -572 305 -210 101 -386 203 -396 228 -2 4 -8 8 -13 8 -17 0 -158 134 -207
196 -95 120 -263 419 -288 512 -2 9 -12 47 -22 84 -9 38 -20 68 -24 68 -5 0
-8 -1 -9 -2z m-212 -1510 c18 -10 43 -33 57 -49 23 -27 85 -146 90 -173 9 -49
41 -131 71 -180 19 -32 35 -60 35 -62 0 -10 -101 48 -158 91 -35 26 -66 45
-69 42 -10 -11 45 -93 87 -128 22 -19 66 -48 98 -63 31 -16 65 -32 74 -37 10
-5 24 -9 32 -9 21 0 116 -42 116 -51 0 -21 -163 14 -249 54 -54 24 -147 83
-178 112 -51 48 -80 127 -88 240 -8 126 -17 209 -22 218 -2 4 -1 12 2 18 9 14
61 2 102 -23z m-1778 -102 c-15 -43 -18 -76 -15 -148 4 -103 -4 -136 -51 -189
-47 -53 -131 -139 -137 -139 -6 0 5 33 14 40 3 3 14 23 22 45 9 22 23 57 32
77 25 58 1 56 -59 -5 -30 -31 -68 -65 -84 -76 l-30 -21 41 82 c22 46 61 125
86 177 31 63 64 113 102 151 84 87 107 89 79 6z m153 -251 c89 -141 56 -345
-67 -408 -28 -14 -58 -20 -160 -32 -22 -3 -62 -8 -90 -11 -49 -7 -81 -8 -139
-5 -27 1 -28 2 -13 19 9 10 59 39 111 66 203 105 286 227 287 426 l1 75 22
-45 c12 -25 34 -63 48 -85z m1494 -95 c10 -28 26 -60 37 -70 10 -11 15 -20 12
-20 -4 0 22 -28 57 -63 41 -40 91 -77 140 -102 43 -22 78 -44 78 -48 0 -5 -5
-5 -12 -1 -6 4 -26 7 -44 6 -18 -1 -36 3 -39 8 -4 6 -10 8 -14 5 -5 -2 -60 -5
-122 -6 -125 -2 -164 9 -195 56 -21 32 -20 111 1 151 8 16 15 37 15 46 0 9 5
20 10 23 6 4 17 22 25 41 8 20 19 33 24 30 5 -3 17 -29 27 -56z m-1217 -199
c53 -53 -18 -222 -186 -446 -25 -33 -114 -136 -151 -173 -65 -68 -29 -72 44
-6 21 20 84 71 139 114 55 43 141 117 190 165 114 109 181 171 235 215 23 19
52 43 64 54 48 41 106 76 128 76 31 0 56 -35 95 -132 32 -80 46 -106 117 -218
56 -90 176 -254 187 -258 5 -2 9 -8 9 -14 0 -6 14 -29 32 -52 17 -22 33 -43
35 -45 2 -2 6 -1 9 2 8 7 -12 61 -36 97 -29 44 -67 165 -77 245 -16 129 -5
204 40 261 25 30 34 35 65 32 29 -2 42 -11 69 -46 l33 -44 -24 -19 c-66 -52
-97 -189 -72 -322 20 -106 108 -274 176 -334 23 -22 57 -32 47 -15 -16 27 -70
176 -79 217 -15 70 -17 231 -4 274 17 54 44 99 66 111 19 10 20 7 21 -52 2
-169 36 -275 145 -444 50 -77 143 -189 173 -208 7 -4 21 -16 30 -25 9 -9 32
-27 51 -41 19 -13 41 -30 48 -37 7 -7 20 -13 28 -13 8 0 14 -3 14 -8 0 -4 15
-13 33 -21 17 -7 46 -19 62 -26 61 -27 215 -62 293 -67 23 -1 42 -6 42 -10 0
-4 -3 -8 -7 -9 -5 0 -15 -2 -23 -4 -159 -39 -275 -45 -375 -20 -33 9 -65 17
-70 18 -6 1 -51 23 -100 47 -94 47 -193 133 -227 198 -18 33 -38 43 -38 18 0
-24 59 -128 108 -191 112 -145 256 -254 411 -314 96 -37 141 -44 266 -44 112
1 159 6 228 27 26 8 49 11 52 6 5 -8 -53 -80 -100 -123 -61 -55 -147 -86 -247
-87 -53 0 -50 -26 5 -41 127 -36 292 -10 370 59 9 8 20 12 23 9 7 -7 6 -92 -1
-142 -16 -106 -12 -172 16 -280 42 -155 46 -238 19 -350 -12 -50 -23 -98 -25
-108 -2 -10 -6 -26 -9 -35 -6 -18 -15 -70 -21 -112 -2 -14 -6 -45 -10 -70 -4
-25 -9 -56 -10 -70 -15 -115 -49 -245 -84 -321 -18 -41 -95 -154 -125 -185 -6
-6 -38 -42 -71 -79 -33 -37 -75 -84 -93 -104 -18 -20 -48 -55 -65 -78 -51 -67
-57 -56 -58 97 -1 119 5 149 42 229 31 67 74 126 144 197 71 72 103 111 123
150 45 90 72 208 54 241 -8 13 -14 7 -33 -35 -13 -29 -28 -52 -32 -52 -5 0 -5
-4 -2 -10 3 -5 1 -10 -4 -10 -6 0 -11 -6 -11 -12 0 -18 -102 -125 -175 -184
-104 -86 -164 -154 -211 -244 -16 -30 -33 -58 -37 -61 -5 -3 -8 -8 -6 -10 3
-5 -32 -111 -36 -107 -12 13 -56 172 -57 208 -2 48 48 240 67 252 5 4 7 8 2 8
-17 0 57 125 142 239 50 66 88 121 84 121 -4 0 0 6 9 13 26 20 66 134 63 180
-3 57 -23 100 -82 177 -85 112 -129 182 -177 283 -25 54 -46 101 -46 106 0 5
-7 26 -16 46 -10 26 -18 34 -23 26 -8 -13 -6 -94 4 -146 15 -75 18 -105 19
-185 0 -79 -2 -90 -32 -143 -18 -31 -47 -77 -65 -101 -64 -86 -139 -226 -151
-282 -14 -62 -15 -74 -6 -74 10 0 53 54 102 130 41 64 63 85 100 99 40 15 53
-7 51 -88 -1 -56 -8 -85 -46 -172 -77 -178 -110 -318 -109 -459 1 -74 9 -173
17 -210 21 -95 37 -194 38 -234 3 -135 -52 -256 -170 -373 -62 -63 -87 -70
-72 -20 5 17 14 51 18 75 l9 43 -27 -17 c-14 -10 -47 -34 -73 -53 -26 -20 -63
-47 -83 -61 -20 -14 -42 -30 -49 -37 -34 -30 -144 -94 -180 -105 -83 -23 -91
-20 -58 23 32 42 47 142 47 320 0 128 -3 170 -14 183 -18 22 -28 11 -35 -39
-15 -113 -23 -142 -73 -265 -52 -129 -86 -175 -146 -204 -29 -14 -70 -27 -92
-30 -22 -3 -49 -8 -60 -10 -90 -18 -123 -18 -165 4 -24 12 -48 26 -54 31 -6 5
-29 23 -51 39 -36 28 -90 71 -135 110 -10 8 -39 33 -66 55 -49 41 -118 100
-142 123 -8 7 -30 24 -50 39 -21 15 -53 43 -73 63 -39 38 -36 27 -55 207 -10
90 65 170 197 209 81 24 158 75 195 129 23 33 47 95 37 95 -9 0 -136 -82 -144
-92 -3 -5 -26 -9 -52 -11 -26 -1 -47 -5 -47 -8 0 -3 -11 -5 -25 -3 -14 1 -52
-11 -86 -28 -33 -17 -62 -28 -65 -26 -6 6 -15 195 -17 355 -1 90 -6 136 -14
145 -7 6 -13 8 -14 2 0 -5 -2 -18 -4 -29 -2 -11 -7 -40 -11 -65 -4 -25 -8 -47
-9 -50 0 -3 -4 -27 -9 -53 -4 -27 -9 -57 -12 -68 -2 -10 -6 -29 -9 -41 -9 -38
-15 -67 -20 -93 -14 -68 -16 -81 -20 -95 -2 -8 -4 -17 -4 -20 -1 -3 -5 0 -9 5
-7 10 -36 28 -83 52 -41 21 -117 91 -150 140 -66 95 -49 -4 23 -143 27 -51 90
-114 115 -114 7 0 13 -4 13 -10 0 -5 5 -10 11 -10 16 0 72 -60 86 -91 11 -25
10 -74 -6 -247 0 -7 -18 -21 -39 -30 -95 -43 -156 -104 -210 -212 -32 -63 -37
-84 -37 -141 0 -42 -4 -65 -10 -61 -33 19 -101 67 -103 74 -2 4 -8 8 -14 8 -5
0 -15 6 -23 12 -106 101 -140 138 -151 163 -18 43 -33 134 -40 245 -6 90 -11
157 -13 172 -2 16 -27 -4 -30 -25 -2 -12 -4 -97 -5 -188 -1 -108 -5 -165 -11
-163 -8 4 -36 54 -41 74 0 3 -3 12 -6 20 -29 74 -28 162 1 284 22 90 21 157
-4 276 -3 14 -8 93 -10 175 -3 83 -7 177 -10 210 -15 158 -13 243 10 372 8 46
18 45 48 -3 39 -64 54 -100 62 -153 9 -59 15 -227 13 -381 -1 -194 1 -302 5
-306 15 -16 38 19 63 94 15 48 31 92 35 97 4 6 10 26 14 45 4 19 11 40 15 45
7 8 80 234 137 420 8 28 19 56 25 62 11 14 111 63 127 63 6 0 11 5 11 10 0 6
6 10 13 10 18 0 252 125 295 157 58 44 91 81 122 138 52 96 36 105 -46 28 -65
-62 -127 -101 -210 -133 -44 -17 -89 -35 -101 -40 -17 -7 -23 -6 -23 3 0 22
85 131 155 200 36 36 62 68 57 71 -5 3 -31 -6 -58 -20 -91 -47 -95 -48 -92
-14 1 17 5 30 9 30 4 0 5 9 2 20 -4 14 3 30 18 46 31 33 61 48 129 64 30 7 61
18 69 24 8 6 15 9 15 7 2 -10 90 43 126 75 39 35 67 93 74 150 6 55 -38 157
-90 211 -14 15 -77 53 -87 53 -10 0 6 -30 32 -57 12 -12 21 -28 21 -36 0 -7 5
-18 11 -24 17 -17 19 -111 3 -149 -32 -77 -119 -143 -190 -144 -63 0 -137 32
-184 81 -67 69 -87 140 -90 314 0 38 -20 -2 -50 -101 l-12 -42 -42 18 c-59 26
-144 18 -133 -13 2 -6 15 -12 30 -14 19 -3 60 -36 130 -107 56 -56 128 -120
160 -141 31 -21 57 -41 57 -46 0 -15 -18 -19 -42 -10 -47 19 -63 24 -70 23 -5
-1 -8 2 -8 8 0 6 -3 9 -7 9 -5 -1 -11 0 -15 1 -5 1 -11 3 -15 4 -18 4 -131 49
-169 67 -56 27 -68 25 -60 -8 4 -16 8 -34 9 -42 1 -10 -30 -24 -103 -45 -58
-18 -111 -35 -117 -39 -22 -14 -14 -34 16 -40 24 -5 30 -13 36 -44 12 -68 59
-133 129 -178 32 -21 49 -11 20 13 -32 27 -45 49 -54 89 -8 37 -8 37 8 17 54
-66 157 -118 227 -116 38 1 54 -9 60 -37 7 -36 -21 -79 -66 -101 -24 -13 -51
-39 -70 -67 -31 -50 -71 -147 -68 -166 1 -7 0 -19 -4 -27 -7 -19 -20 -73 -20
-80 2 -11 -25 -28 -33 -22 -20 15 -62 95 -110 211 -39 92 -97 222 -119 261 -7
14 -13 27 -13 30 0 3 -3 17 -7 32 -4 15 -1 51 6 80 16 62 18 130 5 140 -17 12
-7 84 22 155 43 106 178 322 225 362 10 7 17 20 17 27 0 12 -4 12 -22 2 -13
-7 -25 -15 -28 -19 -3 -3 -23 -18 -45 -35 -66 -49 -85 -66 -164 -146 -41 -43
-78 -78 -82 -78 -7 0 -4 129 3 160 12 47 22 60 46 66 95 19 123 28 171 51 30
14 62 33 71 42 10 9 31 27 46 40 35 29 190 170 249 226 50 48 85 97 85 119 0
14 -4 15 -20 6 -11 -6 -20 -8 -20 -4 0 4 -8 0 -17 -8 -10 -8 -52 -35 -93 -59
-41 -24 -81 -49 -88 -56 -7 -7 -19 -13 -25 -13 -7 0 -25 -7 -41 -15 -46 -24
-127 -41 -186 -38 -116 5 -121 14 -23 43 67 19 238 94 253 110 3 3 31 23 63
44 74 51 191 164 254 246 48 63 125 208 138 263 4 15 12 27 17 27 18 0 2 -74
-30 -147 -42 -93 -47 -113 -29 -113 22 0 109 111 233 295 75 112 101 166 114
235 14 72 41 89 79 51z m2212 -149 c35 -12 85 -58 71 -65 -18 -10 -214 2 -302
18 -69 13 -132 40 -97 42 26 2 112 15 115 17 7 8 183 -2 213 -12z m-2926 -382
c-47 -75 -126 -158 -200 -211 -81 -58 -169 -96 -290 -125 -11 -3 20 15 68 40
86 44 207 121 282 181 49 39 145 136 145 147 0 4 5 8 10 8 6 0 -1 -18 -15 -40z
m-241 -52 c-115 -131 -320 -241 -489 -261 l-50 -7 40 16 c22 8 47 16 55 18 16
3 61 20 95 36 112 50 156 73 188 94 21 15 40 26 43 26 3 0 33 23 67 50 67 55
80 62 51 28z m2386 -42 c0 -12 59 -86 100 -124 98 -94 260 -204 403 -274 54
-27 97 -51 95 -53 -6 -6 -141 35 -152 46 -6 5 -15 9 -22 9 -15 0 -172 87 -191
106 -8 8 -18 14 -22 14 -14 0 -137 125 -177 180 -40 57 -74 122 -74 143 0 13
39 -33 40 -47z m-2715 7 c-36 -32 -113 -86 -125 -88 -3 0 -14 -6 -25 -12 -61
-34 -227 -54 -295 -36 -39 10 -19 18 48 20 70 1 139 10 154 19 4 3 20 8 35 10
15 3 32 9 38 13 5 4 28 13 50 20 22 7 65 30 95 51 69 49 76 50 25 3z m3039
-112 c21 -20 47 -44 58 -53 10 -10 23 -18 28 -18 6 0 10 -4 10 -10 0 -5 7 -10
15 -10 9 0 18 -7 21 -15 4 -8 11 -15 17 -15 6 0 18 -6 26 -14 19 -16 140 -82
261 -143 47 -23 83 -42 80 -42 -21 -3 -164 46 -232 78 -137 66 -230 137 -306
235 -49 63 -42 65 22 7z m388 -40 c6 -18 194 -105 326 -152 34 -12 62 -23 62
-25 0 -2 -17 -1 -37 2 -59 9 -183 56 -253 96 -72 41 -132 87 -113 88 6 0 13
-4 15 -9z m-3004 -1130 c2 -12 21 -40 42 -61 33 -33 45 -39 77 -37 37 2 38 3
35 36 -4 36 9 51 38 44 40 -10 32 -58 -15 -105 -15 -16 -34 -29 -41 -29 -33
-3 -41 -3 -74 4 -19 4 -45 16 -58 27 -41 34 -68 132 -39 143 20 9 32 2 35 -22z
m-464 -200 c3 -39 7 -75 11 -81 3 -5 1 -10 -6 -10 -9 0 -10 -3 -3 -10 6 -6 8
-28 4 -53 -12 -86 -2 -254 20 -311 6 -16 12 -41 14 -55 13 -97 19 -131 27
-166 12 -56 11 -134 -3 -197 -11 -52 -28 -87 -28 -58 0 8 -9 44 -20 80 -10 36
-35 133 -55 215 -37 152 -41 170 -50 215 -3 14 -12 52 -19 85 -16 65 -15 218
2 270 12 36 35 88 42 95 3 3 14 22 25 42 25 48 34 34 39 -61z m1006 -1688 c47
-30 81 -78 131 -183 28 -58 71 -128 95 -157 49 -57 52 -63 26 -58 -56 10 -103
31 -146 63 -99 74 -90 71 -83 33 4 -19 25 -58 47 -87 22 -29 40 -55 40 -58 0
-8 -134 8 -174 20 -22 7 -103 64 -91 64 4 0 -1 8 -12 18 -47 41 -65 111 -50
194 26 140 126 210 217 151z"/>
<path d="M6610 8482 c-125 -126 -234 -225 -314 -284 -28 -21 -56 -42 -63 -48
-7 -5 -16 -10 -21 -10 -5 0 -17 -9 -27 -20 -10 -11 -25 -20 -34 -20 -11 0 -12
-3 -4 -11 9 -9 20 -9 45 1 58 22 161 73 223 111 115 69 108 69 78 -8 -31 -81
-91 -267 -98 -303 -3 -14 -8 -42 -11 -62 -4 -21 -9 -38 -12 -38 -3 0 -33 18
-68 40 -69 44 -101 52 -89 23 4 -10 8 -22 9 -28 2 -5 8 -23 14 -38 20 -47 25
-105 27 -282 2 -165 5 -199 26 -277 17 -64 13 -305 -6 -398 -3 -14 -8 -36 -10
-50 -8 -48 -14 -69 -39 -140 -30 -82 -32 -100 -11 -100 8 0 15 3 15 8 0 4 18
26 40 50 22 24 40 47 40 52 0 6 3 10 8 10 11 0 65 137 79 200 8 41 11 55 13
60 1 3 3 10 5 15 1 6 3 12 4 15 3 7 9 100 15 242 7 143 28 230 73 306 43 70
50 109 22 117 -21 7 -45 -8 -86 -55 l-22 -25 -2 40 c0 22 -2 64 -4 93 -2 28 0
52 6 52 5 0 9 4 9 9 0 5 20 51 44 102 24 52 58 135 74 184 37 108 102 313 107
337 2 9 8 25 13 35 6 10 10 20 10 23 1 9 20 56 44 105 56 119 16 108 -122 -33z"/>
<path d="M6700 8279 c0 -6 9 -13 20 -16 11 -3 33 -31 51 -67 18 -33 37 -70 43
-80 20 -35 84 -96 113 -107 101 -40 218 -77 229 -72 37 14 -3 55 -119 123 -33
19 -80 55 -107 80 -100 94 -118 109 -154 129 -40 23 -76 27 -76 10z"/>
<path d="M6890 7776 c-54 -14 -114 -49 -153 -89 -34 -34 -79 -131 -75 -160 3
-19 9 -16 56 26 113 101 169 120 249 86 55 -23 109 -25 117 -3 11 29 6 69 -12
90 -45 54 -104 70 -182 50z"/>
<path d="M5865 7735 c-41 -18 -66 -47 -68 -81 l-2 -29 84 2 c77 1 87 -1 135
-29 48 -29 116 -93 116 -110 0 -12 33 -48 44 -48 12 0 0 84 -16 113 -7 12 -11
25 -10 30 1 4 -2 7 -8 7 -6 0 -10 6 -10 13 0 24 -114 122 -157 135 -49 15 -69
14 -108 -3z"/>
<path d="M7419 7473 c0 -5 -2 -16 -4 -25 -2 -9 1 -34 6 -55 5 -21 11 -45 13
-54 18 -72 96 -162 201 -232 76 -50 109 -82 143 -139 27 -44 43 -51 58 -25 16
28 -8 121 -43 171 -15 22 -57 64 -93 94 -193 162 -200 168 -232 229 -20 38
-47 57 -49 36z"/>
<path d="M6627 7371 c-54 -57 -83 -102 -106 -164 -48 -131 -20 -234 81 -299
28 -18 53 -33 57 -34 3 0 22 -5 43 -11 20 -6 71 -9 113 -6 71 4 81 2 118 -23
42 -27 117 -100 117 -112 0 -4 -17 -32 -38 -63 -20 -31 -41 -64 -47 -73 -9
-16 -13 -16 -45 -1 -19 8 -42 20 -50 25 -83 54 -196 120 -207 120 -7 0 -13 -4
-13 -10 0 -5 4 -10 10 -10 22 0 127 -91 180 -157 90 -111 170 -226 170 -242 0
-6 5 -11 10 -11 6 0 10 -6 10 -14 0 -13 34 -105 50 -137 9 -18 29 -89 37 -128
2 -13 9 -33 15 -44 15 -29 27 -4 20 42 -6 38 -7 164 -2 296 4 104 -4 128 -52
168 -30 25 -39 39 -34 53 8 25 83 102 115 118 27 14 34 14 121 1 73 -11 113
-8 163 12 61 25 106 76 121 138 8 31 20 43 42 43 25 0 26 -3 20 -45 -6 -51
-36 -104 -74 -132 -36 -26 -22 -38 19 -14 63 35 147 137 151 181 2 29 5 32 35
32 44 0 50 16 13 35 -16 8 -32 15 -35 14 -3 0 -38 6 -78 15 -39 8 -88 18 -107
21 -19 3 -42 8 -50 10 -8 2 -22 4 -29 4 -10 1 -4 12 17 34 35 36 42 67 15 67
-22 0 -178 -47 -220 -66 -17 -8 -33 -14 -36 -14 -2 0 -21 -7 -41 -15 -20 -8
-38 -15 -41 -15 -3 0 -22 -10 -42 -21 -53 -30 -66 -30 -99 -4 l-29 24 56 54
c66 63 148 121 237 166 34 17 62 36 62 42 0 21 -63 36 -155 35 -94 -1 -99 1
-110 34 -11 31 -26 58 -39 69 -18 15 -42 5 -28 -12 10 -12 8 -114 -2 -155 -11
-47 -57 -136 -82 -159 -14 -13 -42 -31 -62 -40 -39 -17 -132 -34 -132 -23 0 3
-8 6 -17 6 -97 4 -135 51 -150 180 -6 59 10 110 57 183 22 34 40 63 40 65 0 1
-7 3 -15 3 -8 0 -29 -16 -48 -36z m606 -517 c6 -34 35 -79 59 -92 40 -21 88
-32 88 -20 0 6 3 8 7 5 3 -4 12 -2 20 5 11 9 11 14 -3 29 -11 12 -14 27 -10
45 6 24 10 26 46 20 30 -5 39 -3 42 9 3 14 5 14 24 0 20 -13 21 -18 10 -49
-35 -101 -129 -146 -226 -108 -65 25 -105 105 -81 159 13 28 19 27 24 -3z"/>
<path d="M6495 6667 c-15 -38 12 -121 71 -212 43 -69 77 -103 159 -165 183
-138 212 -184 360 -595 20 -55 39 -107 42 -115 4 -8 7 -17 8 -20 1 -3 8 -18
15 -35 7 -16 14 -32 14 -35 3 -14 49 -80 56 -80 15 0 -1 143 -20 180 -5 8 -10
29 -13 45 -7 41 -96 308 -142 425 -85 218 -133 281 -280 370 -84 51 -235 182
-235 205 0 5 -7 19 -15 29 -13 17 -15 17 -20 3z"/>
<path d="M7488 6325 c-7 -9 -18 -21 -23 -28 -30 -35 -97 -160 -123 -229 -30
-80 -33 -99 -37 -218 -3 -120 9 -213 41 -313 11 -32 20 -45 26 -39 11 11 16
45 23 177 7 133 19 255 30 305 3 14 8 42 10 62 3 20 9 48 15 62 5 15 7 26 4
26 -4 0 -1 7 6 15 7 8 9 15 6 15 -4 0 -2 8 3 19 6 10 19 50 30 90 19 69 15 87
-11 56z"/>
<path d="M5850 6323 c0 -11 48 -45 97 -68 41 -19 64 -23 110 -20 58 4 105 11
133 21 37 13 96 15 135 4 49 -14 120 -77 130 -117 8 -35 3 -36 -28 -7 -27 25
-65 41 -117 50 -21 4 -177 6 -198 3 -4 -1 -9 -1 -12 0 -3 1 -36 4 -75 6 -38 2
-94 11 -123 19 -32 8 -73 12 -102 9 -28 -3 -50 -2 -50 2 0 4 9 20 21 37 12 16
19 31 16 34 -19 19 -141 -87 -171 -150 l-15 -30 -6 27 c-4 14 -13 31 -21 38
-16 13 -15 17 -18 -76 -2 -33 -6 -97 -11 -141 -8 -90 4 -164 34 -200 40 -49
112 -68 196 -53 16 3 19 -1 17 -19 -3 -20 -1 -22 15 -14 46 26 58 54 58 137 0
45 -6 94 -14 112 -28 67 -100 80 -120 22 -9 -27 -8 -46 5 -112 7 -33 -16 -46
-51 -27 -24 13 -49 56 -40 70 3 5 1 11 -4 14 -11 7 13 126 33 164 17 33 67 73
110 88 26 9 95 11 104 4 1 -1 5 -3 10 -4 4 -1 18 -8 32 -16 14 -7 26 -13 28
-12 1 1 3 2 5 1 42 -12 94 -14 236 -6 153 7 215 -37 213 -156 0 -94 -29 -156
-87 -184 -20 -10 -82 -9 -92 1 -3 3 4 21 16 41 33 56 34 103 2 133 -44 41
-106 20 -132 -45 -25 -59 -31 -134 -17 -190 15 -61 33 -72 52 -34 l16 30 48
-21 c66 -29 125 -27 190 6 88 45 122 88 157 196 18 56 58 135 82 158 7 7 13
20 13 27 0 19 -28 9 -62 -23 -20 -18 -28 -21 -29 -11 -8 130 -67 217 -173 253
-62 21 -195 28 -264 13 -84 -17 -183 -16 -234 3 -27 10 -48 16 -48 13z"/>
<path d="M6380 5320 c-14 -26 2 -58 35 -66 30 -7 45 1 45 27 0 22 -34 59 -55
59 -8 0 -19 -9 -25 -20z"/>
<path d="M5564 5318 c-28 -13 -45 -49 -33 -71 11 -19 33 -13 65 15 37 33 12
76 -32 56z"/>
<path d="M5733 5274 c-21 -23 -32 -74 -17 -74 26 0 73 35 77 58 9 46 -26 55
-60 16z"/>
<path d="M6137 5278 c-33 -18 6 -88 48 -88 13 0 25 7 29 15 14 37 -44 92 -77
73z"/>
<path d="M6563 5248 c-16 -26 -12 -46 13 -71 27 -27 60 -32 69 -9 6 17 -29 78
-51 86 -21 8 -22 8 -31 -6z"/>
<path d="M5391 5233 c-12 -10 -23 -28 -25 -40 -7 -33 30 -37 61 -7 43 43 11
85 -36 47z"/>
<path d="M5581 5183 c-26 -18 -46 -62 -33 -75 14 -14 70 11 76 35 13 49 -6 67
-43 40z"/>
<path d="M6308 5169 c-25 -14 -22 -36 6 -64 42 -42 85 0 52 50 -18 27 -31 30
-58 14z"/>
<path d="M6752 5113 c-20 -38 32 -90 67 -68 20 12 12 52 -14 69 -31 20 -42 20
-53 -1z"/>
<path d="M5454 5110 c-11 -5 -26 -22 -33 -38 -24 -58 13 -71 59 -21 40 41 24
77 -26 59z"/>
<path d="M6467 5079 c-22 -13 -21 -38 1 -65 39 -49 82 -48 82 1 -1 41 -52 81
-83 64z"/>
<path d="M5285 5017 c-10 -11 -11 -22 -7 -53 3 -19 38 -22 60 -5 13 9 20 24
17 36 -2 11 -4 23 -4 28 -1 12 -55 7 -66 -6z"/>
<path d="M5570 5000 c-11 -11 -20 -31 -20 -45 0 -21 5 -25 28 -25 49 0 77 58
40 81 -19 13 -26 11 -48 -11z"/>
<path d="M6368 4963 c-20 -24 10 -68 47 -68 34 0 39 17 17 51 -17 28 -48 36
-64 17z"/>
<path d="M6667 4963 c-14 -14 -6 -42 18 -61 29 -23 54 -23 69 1 20 32 -60 87
-87 60z"/>
<path d="M5427 4892 c-37 -41 2 -88 49 -58 23 16 27 44 8 63 -18 18 -38 16
-57 -5z"/>
<path d="M6553 4813 c-30 -11 -4 -71 32 -77 44 -7 58 31 25 64 -20 20 -34 23
-57 13z"/>
<path d="M1181 4807 c-6 -19 -13 -43 -16 -53 -4 -19 -130 -396 -142 -424 -3
-8 -7 -20 -9 -27 -7 -34 -68 -210 -77 -220 -5 -7 -7 -13 -4 -13 3 0 -49 -159
-115 -352 -65 -194 -130 -385 -143 -423 -13 -39 -30 -88 -38 -110 -9 -22 -37
-98 -62 -170 -26 -71 -53 -143 -60 -160 -7 -16 -30 -73 -50 -125 -40 -101 -45
-113 -121 -285 -85 -193 -178 -326 -278 -398 -17 -13 16 -14 246 -14 l266 0
-20 33 c-57 96 -57 231 -2 429 9 33 18 67 19 75 1 8 7 28 14 44 6 16 13 38 16
50 2 11 4 21 4 21 1 0 27 76 59 169 l57 170 49 24 c26 13 56 26 65 27 9 2 16
4 16 5 0 12 140 16 205 6 98 -15 240 -115 285 -202 34 -64 51 -50 32 26 -4 14
-9 39 -11 55 -7 44 -16 86 -26 125 -5 19 -12 53 -16 75 -3 22 -10 48 -16 58
-9 18 -74 52 -121 64 -29 7 -172 8 -220 0 -47 -7 -139 -36 -151 -48 -19 -17
-25 -9 -15 19 6 15 13 34 15 42 2 8 28 87 59 175 75 215 126 369 165 492 17
57 36 100 41 97 5 -3 7 -9 4 -14 -3 -5 -1 -11 4 -14 7 -5 12 -20 22 -74 1 -4
8 -16 15 -27 8 -11 14 -28 14 -37 0 -10 4 -26 9 -36 6 -9 20 -44 32 -77 12
-33 35 -96 51 -140 16 -44 33 -91 38 -105 5 -14 23 -63 40 -110 17 -47 35 -96
40 -110 4 -14 20 -56 35 -95 14 -38 35 -97 46 -130 11 -33 25 -69 30 -80 20
-42 188 -545 183 -545 -4 0 -2 -6 3 -12 13 -17 38 -99 51 -163 8 -42 9 -134 2
-142 -3 -4 -7 -20 -9 -37 0 -7 -12 -29 -25 -48 l-24 -36 409 1 409 0 -45 46
c-82 84 -130 176 -341 655 -64 144 -124 281 -135 305 -11 24 -29 66 -40 94
-11 28 -28 69 -38 91 -21 46 -106 249 -156 371 -18 44 -56 136 -84 204 -28 69
-51 130 -51 137 0 7 -3 14 -7 16 -5 2 -19 30 -32 63 -13 33 -31 78 -41 100
-10 22 -30 72 -45 110 -15 39 -33 84 -41 100 -12 28 -92 229 -136 340 -10 28
-23 59 -28 70 -4 11 -14 36 -21 55 -18 52 -26 55 -38 17z"/>
<path d="M12217 4604 c-2 -2 -51 -6 -109 -8 -57 -3 -115 -7 -129 -10 -13 -3
-35 -8 -49 -10 -295 -50 -524 -224 -632 -479 -17 -40 -34 -81 -40 -92 -5 -11
-17 -54 -27 -95 -20 -81 -22 -255 -4 -320 32 -114 118 -224 226 -288 56 -34
204 -101 235 -107 9 -2 18 -4 20 -5 1 -2 5 -3 10 -5 4 -1 14 -4 22 -8 27 -10
150 -49 168 -52 9 -2 19 -4 22 -5 3 -1 8 -2 13 -1 4 0 7 -4 7 -10 0 -5 5 -7
10 -4 6 4 16 3 23 -2 7 -5 30 -15 52 -22 145 -49 261 -125 323 -211 55 -78 72
-139 69 -254 -4 -117 -30 -193 -94 -275 -136 -173 -412 -252 -622 -178 -41 14
-77 30 -80 35 -3 5 -20 16 -37 25 -30 16 -148 126 -189 177 -115 144 -215 373
-227 518 -1 6 -5 12 -10 12 -8 0 -4 -170 7 -310 2 -25 6 -79 9 -120 6 -74 8
-94 21 -200 4 -30 8 -71 11 -90 13 -111 18 -136 27 -142 18 -11 160 -56 197
-62 19 -3 46 -8 60 -11 61 -12 176 -20 305 -20 206 0 283 14 426 75 242 103
420 291 532 563 9 20 14 37 12 37 -2 0 2 15 10 34 47 112 33 361 -29 508 -9
21 -15 39 -14 40 1 2 -20 35 -47 73 -46 66 -69 92 -126 140 -22 19 -137 79
-184 96 -40 15 -251 91 -280 101 -16 5 -39 14 -50 18 -11 5 -51 20 -90 34 -38
14 -83 31 -100 37 -16 7 -37 13 -45 15 -17 3 -80 29 -137 56 -150 72 -201 250
-116 407 76 141 291 222 498 187 55 -9 71 -14 135 -44 165 -76 300 -216 341
-352 17 -57 28 -50 24 18 -12 187 -19 281 -30 392 -3 30 -7 72 -9 93 -4 42
-23 70 -42 63 -6 -2 -15 -2 -18 2 -4 3 -14 7 -24 8 -9 1 -39 5 -67 8 -27 4
-66 8 -85 11 -19 2 -35 4 -35 5 0 4 -34 8 -38 4z"/>
<path d="M2509 4121 c20 -30 40 -76 46 -111 3 -14 7 -36 10 -50 13 -65 19
-356 19 -900 1 -820 -5 -897 -66 -987 -16 -24 -24 -43 -18 -44 5 -1 19 -1 30
-1 11 0 271 0 578 1 l559 1 28 93 c16 50 30 97 31 102 5 20 13 51 28 105 9 30
18 72 21 94 4 21 10 49 15 62 16 40 -12 28 -40 -18 -31 -50 -130 -150 -188
-189 -77 -52 -181 -97 -263 -115 -101 -21 -231 -24 -276 -5 -56 23 -54 9 -69
436 -17 451 1 1410 26 1410 1 0 4 11 6 25 2 13 16 43 30 67 14 24 24 44 22 44
-2 1 -125 3 -275 4 l-272 1 18 -25z"/>
<path d="M9830 4142 c0 -3 8 -19 19 -36 19 -32 36 -80 46 -131 8 -43 17 -254
19 -432 0 -84 3 -153 6 -153 7 0 5 -558 -2 -565 -3 -3 -2 -20 1 -38 4 -18 4
-44 0 -59 -4 -16 -3 -30 2 -34 5 -3 7 -10 3 -15 -3 -5 -7 -80 -10 -167 -4
-179 -11 -295 -19 -333 -8 -42 -34 -99 -55 -122 -11 -11 -18 -22 -16 -24 4 -5
1168 -4 1173 1 8 7 82 260 78 265 -2 2 0 11 5 21 5 9 12 30 15 46 3 16 11 55
19 87 16 67 2 78 -29 21 -29 -53 -133 -156 -211 -206 -67 -44 -179 -92 -239
-103 -77 -14 -101 -17 -173 -19 -62 -3 -84 1 -114 17 -21 12 -38 25 -39 31 0
6 -2 20 -4 31 -31 164 -37 1165 -9 1640 8 130 31 219 70 265 12 14 -15 16
-261 16 -151 0 -275 -2 -275 -4z"/>
<path d="M6070 3713 c0 -7 4 -13 10 -13 5 0 12 -11 16 -25 3 -14 10 -25 15
-25 7 0 25 -50 36 -100 15 -75 23 -952 9 -1194 -7 -129 -25 -225 -55 -286 -12
-26 -15 -40 -8 -40 7 0 183 0 392 -1 209 -1 389 1 400 4 99 26 213 98 257 161
12 17 25 33 28 36 11 9 59 115 65 146 4 16 9 40 12 54 13 61 10 233 -6 284
-20 64 -59 131 -103 176 -35 37 -128 106 -128 95 0 -3 -12 0 -27 8 -16 8 -48
20 -71 27 -42 11 -49 19 -20 23 21 4 90 48 131 86 126 115 132 363 13 483 -40
40 -117 83 -166 91 -14 3 -43 8 -65 13 -22 4 -196 8 -388 8 -271 1 -347 -2
-347 -11z m624 -85 c87 -22 139 -120 137 -261 -2 -124 -13 -173 -55 -229 -23
-33 -86 -76 -118 -82 -13 -3 -23 -5 -23 -6 0 -2 -34 -10 -60 -15 -11 -2 -40
-4 -64 -4 -59 -1 -43 -18 24 -26 28 -3 61 -7 75 -9 90 -11 227 -81 254 -131 6
-11 13 -22 17 -25 3 -3 13 -23 24 -45 64 -138 56 -355 -20 -510 -30 -63 -98
-135 -149 -158 -52 -24 -150 -32 -204 -17 -82 21 -83 31 -84 825 -2 623 1 655
57 685 53 28 101 30 189 8z"/>
<path d="M5285 3668 c-4 -17 -66 -205 -137 -417 -71 -213 -130 -393 -133 -401
-7 -29 -63 -178 -74 -199 -7 -11 -8 -21 -4 -21 4 0 2 -5 -5 -12 -7 -7 -12 -20
-12 -30 0 -10 -4 -26 -10 -36 -5 -9 -24 -53 -41 -97 -85 -220 -152 -342 -219
-399 l-32 -26 156 0 c86 0 156 2 156 3 0 2 -7 18 -16 35 -8 18 -17 51 -18 74
-2 37 1 61 20 155 2 12 9 34 14 48 5 14 7 25 4 25 -4 0 -2 6 3 13 9 10 24 57
27 79 1 3 4 10 9 14 4 4 7 13 7 20 0 7 9 38 21 69 22 59 46 79 110 90 111 20
204 -17 269 -107 34 -47 42 -39 25 27 -6 28 -18 76 -24 108 -17 76 -39 91
-143 94 -48 1 -93 -3 -119 -12 -65 -23 -63 -25 -38 40 7 17 13 35 15 40 1 6
29 89 62 185 33 96 61 184 64 195 4 22 22 -21 78 -180 17 -49 35 -99 40 -110
10 -22 101 -274 105 -290 1 -5 5 -17 8 -25 13 -29 89 -245 97 -275 5 -16 18
-59 30 -95 11 -35 21 -83 21 -105 1 -42 -15 -95 -33 -106 -19 -12 38 -14 259
-9 l223 5 -30 32 c-43 46 -78 110 -150 273 -35 80 -73 168 -86 195 -12 28 -61
142 -108 255 -48 113 -91 213 -96 222 -6 10 -10 25 -10 33 0 8 -4 15 -10 15
-6 0 -9 3 -8 8 0 4 -2 16 -7 27 -4 11 -19 47 -32 80 -13 33 -31 75 -40 94 -8
18 -16 39 -17 45 -2 6 -8 25 -16 41 -7 17 -16 39 -20 50 -5 11 -21 51 -37 90
-15 38 -28 72 -28 75 -1 3 -11 27 -23 54 -12 27 -22 52 -22 57 0 4 -4 10 -9
13 -5 4 -13 -8 -16 -26z"/>
<path d="M7762 3621 c-6 -4 -91 -6 -187 -5 -97 1 -174 -1 -172 -5 40 -73 47
-104 52 -234 2 -53 7 -101 10 -106 3 -6 1 -12 -5 -16 -6 -4 -8 -11 -4 -16 3
-6 8 -175 10 -377 4 -489 12 -553 76 -675 52 -97 166 -176 278 -192 193 -27
317 -23 414 14 57 21 154 89 162 114 3 9 9 17 15 17 13 0 65 106 83 171 27 97
31 140 41 449 3 102 7 221 10 265 2 44 7 145 11 225 7 176 11 243 14 250 1 3
2 9 1 13 -1 4 9 29 21 56 l23 47 -152 0 c-84 0 -153 0 -153 -1 0 -1 9 -20 20
-42 25 -52 40 -120 46 -208 2 -38 6 -97 9 -130 9 -129 18 -378 19 -535 2 -162
-10 -287 -38 -395 -9 -39 -51 -111 -83 -144 -55 -58 -121 -84 -217 -86 -154
-4 -243 47 -295 169 -11 25 -19 46 -16 46 2 0 -1 15 -6 33 -19 64 -22 159 -21
557 3 556 7 639 40 695 20 33 17 60 -6 46z"/>
<path d="M3870 3585 c18 -32 28 -69 35 -125 26 -218 22 -1234 -5 -1329 -5 -18
-18 -48 -29 -67 -11 -19 -17 -34 -13 -34 203 -3 412 -4 412 -2 0 2 -8 16 -19
30 -23 34 -38 82 -45 147 -16 142 -27 578 -15 596 20 32 205 53 299 34 62 -13
65 -13 65 -15 0 -1 9 -3 19 -5 53 -10 176 -98 176 -127 0 -4 4 -8 10 -8 5 0 7
6 5 13 -5 14 -13 54 -21 111 -4 22 -11 58 -18 80 -11 39 -15 42 -76 63 -55 18
-83 21 -180 18 -63 -2 -126 -5 -140 -9 -58 -12 -130 -41 -130 -51 0 -5 -4 -5
-8 2 -8 13 -8 104 2 348 6 147 7 163 21 217 10 38 58 55 153 52 141 -5 194
-19 260 -69 32 -24 87 -82 110 -117 13 -21 27 -38 29 -38 6 0 -7 184 -21 295
-3 20 -11 20 -448 20 l-445 1 17 -31z"/>
<path d="M8789 3611 c13 -9 52 -123 47 -137 -2 -6 -2 -15 2 -18 10 -11 14
-188 15 -651 1 -584 -5 -676 -48 -741 -8 -13 -15 -27 -15 -31 0 -4 190 -7 422
-6 233 2 430 3 438 3 10 0 22 21 34 63 29 94 64 231 70 272 l6 37 -25 -30
c-14 -16 -25 -33 -25 -38 0 -23 -139 -134 -205 -163 -16 -7 -37 -17 -46 -21
-15 -8 -29 -11 -104 -25 -11 -2 -22 -4 -25 -5 -3 -1 -33 -2 -68 -2 -65 -1
-107 14 -117 40 -8 20 -17 251 -19 454 0 93 -5 168 -9 168 -4 0 -4 8 0 18 5 9
7 31 6 47 -4 41 -4 29 1 235 7 246 18 435 25 435 2 0 5 11 7 24 2 14 10 32 18
40 7 9 16 21 19 26 4 8 -61 11 -204 11 -115 0 -205 -2 -200 -5z"/>
</g>
</svg>
