<svg width="35" height="45" viewBox="0 0 35 45" fill="none" xmlns="http://www.w3.org/2000/svg">
<path d="M12.5311 16.375C12.5311 13.4237 14.7557 11.0312 17.4998 11.0312C20.244 11.0312 22.4686 13.4237 22.4686 16.375C22.4686 19.3263 20.244 21.7188 17.4998 21.7188C14.7557 21.7188 12.5311 19.3263 12.5311 16.375Z" fill="white"/>
<path fill-rule="evenodd" clip-rule="evenodd" d="M17.1421 0.9375C10.0703 0.9375 4.18058 6.77105 3.59963 14.351C3.28731 18.4258 4.45767 22.472 6.86419 25.6372L14.8027 36.0785C16.1967 37.912 18.803 37.912 20.197 36.0785L28.1355 25.6372C30.542 22.472 31.7124 18.4258 31.4001 14.351C30.8191 6.77105 24.9294 0.9375 17.8575 0.9375H17.1421ZM17.4998 7.46875C12.9262 7.46875 9.21859 11.4562 9.21859 16.375C9.21859 21.2938 12.9262 25.2812 17.4998 25.2812C22.0734 25.2812 25.7811 21.2938 25.7811 16.375C25.7811 11.4562 22.0734 7.46875 17.4998 7.46875Z" fill="white"/>
<path d="M7.19887 31.4068C8.01702 31.8467 8.34864 32.9167 7.93957 33.7966L4.72137 40.7187H30.2783L27.0601 33.7966C26.651 32.9167 26.9827 31.8467 27.8008 31.4068C28.619 30.9668 29.6138 31.3235 30.0229 32.2034L34.4396 41.7034C34.6963 42.2556 34.6688 42.9113 34.3671 43.4365C34.0653 43.9616 33.5322 44.2812 32.9582 44.2812H2.04151C1.46749 44.2812 0.934395 43.9616 0.632615 43.4365C0.330836 42.9113 0.303401 42.2556 0.560111 41.7034L4.97678 32.2034C5.38585 31.3235 6.38072 30.9668 7.19887 31.4068Z" fill="white"/>
</svg>
