<svg width="35" height="41" viewBox="0 0 35 41" fill="none" xmlns="http://www.w3.org/2000/svg">
<path d="M21.4667 2.13383C19.2972 -0.106782 15.7037 -0.106786 13.5342 2.13382L2.93753 13.0777C2.32895 13.7063 1.92 14.5008 1.7622 15.3614C0.475269 22.3794 0.380274 29.5641 1.4812 36.6137L1.87098 39.1096C1.99409 39.8979 2.67307 40.4791 3.47096 40.4791H10.8754C11.4852 40.4791 11.9796 39.9847 11.9796 39.3749V23.9166H23.0212V39.3749C23.0212 39.9847 23.5156 40.4791 24.1254 40.4791H31.5298C32.3276 40.4791 33.0066 39.8979 33.1297 39.1096L33.5195 36.6137C34.6204 29.5641 34.5255 22.3794 33.2385 15.3614C33.0807 14.5008 32.6718 13.7063 32.0632 13.0777L21.4667 2.13383Z" fill="white"/>
</svg>
