<svg width="38" height="43" viewBox="0 0 38 43" fill="none" xmlns="http://www.w3.org/2000/svg">
<path d="M21.9017 1.75226C20.1165 0.605692 17.8835 0.605693 16.0983 1.75226L14.8076 2.58131C11.6757 4.59288 8.15978 5.82725 4.52008 6.19302L3.70688 6.27474C2.10165 6.43606 0.875 7.87356 0.875 9.59338V13.9771C0.875 21.3867 3.69521 28.4789 8.68959 33.6289L16.828 42.021C18.0393 43.27 19.9607 43.27 21.172 42.021L29.3104 33.6289C34.3048 28.4789 37.125 21.3867 37.125 13.9771V9.59338C37.125 7.87356 35.8983 6.43606 34.2931 6.27474L33.4799 6.19302C29.8402 5.82725 26.3243 4.59288 23.1924 2.5813L21.9017 1.75226Z" fill="white"/>
</svg>
