<svg width="39" height="33" viewBox="0 0 39 33" fill="none" xmlns="http://www.w3.org/2000/svg">
<path d="M11.5507 0.59375C5.40959 0.59375 0.177734 5.18554 0.177734 11.1491C0.177734 15.2632 2.10417 18.7268 4.65732 21.5959C7.2017 24.4552 10.4843 26.8553 13.452 28.864L18.5722 32.3299C19.133 32.7095 19.8683 32.7095 20.4291 32.3299L25.5493 28.864C28.517 26.8553 31.7996 24.4552 34.344 21.5959C36.8971 18.7268 38.8236 15.2632 38.8236 11.1491C38.8236 5.18554 33.5917 0.59375 27.4507 0.59375C24.2851 0.59375 21.4995 2.07806 19.5007 3.99863C17.5018 2.07806 14.7162 0.59375 11.5507 0.59375Z" fill="white"/>
</svg>
