<svg width="45" height="43" viewBox="0 0 45 43" fill="none" xmlns="http://www.w3.org/2000/svg">
<path d="M29.6881 0.0528297C27.1388 0.646314 25.145 2.73218 24.1815 5.8176C23.7314 7.25792 23.5345 9.04532 23.6822 10.3468C23.9705 12.9186 25.2013 14.935 27.0262 15.8409C28.06 16.3545 29.0833 16.4413 30.0468 16.1046C30.7219 15.8686 31.6326 15.3411 32.2269 14.8413C33.8057 13.519 34.9309 11.4817 35.3529 9.18414C35.4971 8.3963 35.5322 7.99718 35.5287 7.1191C35.5287 5.4393 35.2896 4.21415 34.7586 3.12784C33.9499 1.4758 32.6699 0.392955 31.1474 0.0701828C30.7289 -0.0165825 30.0327 -0.0235233 29.6881 0.0528297Z" fill="white"/>
<path d="M13.4316 0.212662C12.0215 0.455607 10.6924 1.55234 9.9012 3.12455C9.46869 3.9818 9.26474 4.80435 9.17332 6.0642C9.13112 6.61603 9.15222 7.50105 9.21552 8.05636C9.5777 11.2077 11.0686 13.8628 13.3156 15.3482C13.7656 15.6467 14.5111 16.0111 15.0175 16.1777C15.3761 16.2957 15.4675 16.3096 15.8649 16.3269C16.3923 16.3478 16.7686 16.2992 17.2292 16.1534C17.943 15.9278 18.5268 15.5738 19.0753 15.0324C20.1618 13.96 20.837 12.3426 20.9952 10.4407C21.0585 9.65633 20.9882 8.49019 20.8159 7.57741C20.1267 3.87421 17.9712 1.13239 15.1159 0.320251C14.5463 0.160601 13.9626 0.122423 13.4316 0.212662Z" fill="white"/>
<path d="M40.0953 12.8771C37.7429 13.2589 35.6964 14.8589 34.42 17.3196C33.8327 18.4545 33.5374 19.3777 33.3088 20.8145C33.2279 21.3282 33.2139 21.5225 33.2139 22.1126C33.2139 22.8344 33.2561 23.1919 33.4073 23.775C33.8116 25.3403 34.7646 26.614 35.9496 27.1797C36.5966 27.4886 37.1873 27.6031 37.8519 27.5441C39.4659 27.4053 40.9041 26.6869 42.184 25.3819C43.5941 23.9416 44.5646 21.9494 44.881 19.8566C44.9619 19.336 45.0182 18.3087 44.9936 17.8888C44.8635 15.73 43.689 13.8316 42.0539 13.1374C41.421 12.8702 40.7247 12.7765 40.0953 12.8771Z" fill="white"/>
<path d="M3.69488 13.7864C2.16528 14.0398 0.878303 15.0949 0.403598 16.4901C0.234814 16.9829 0.0941612 17.6875 0.0343836 18.3295C-0.183629 20.6584 0.646225 23.2891 2.20747 25.2188C3.3749 26.6591 4.87989 27.6552 6.56421 28.1029C7.98129 28.4778 9.2542 28.1238 10.3337 27.0583C11.2972 26.1073 11.7789 24.719 11.7789 22.89C11.7789 22.1785 11.7438 21.7898 11.6172 21.1304C11.1882 18.8675 9.88714 16.7018 8.10436 15.2823C7.28505 14.6298 6.18093 14.0294 5.48469 13.8593C4.93615 13.724 4.24343 13.6962 3.69488 13.7864Z" fill="white"/>
<path d="M21.9417 22.2513C20.718 22.3866 19.5084 22.7094 18.3164 23.2265C16.4949 24.0213 14.7368 25.3436 13.601 26.7805C11.1501 29.8833 9.44821 33.2429 8.7555 36.3422C8.7133 36.5331 8.63946 36.8211 8.59374 36.9842C8.35815 37.8276 8.39683 38.7855 8.70275 39.622C9.19504 40.9686 10.2605 42.0132 11.5791 42.4505C12.3668 42.7108 13.5447 42.7074 14.8563 42.4367C15.7108 42.2631 16.3508 42.0618 18.1652 41.3989C20.6899 40.4723 21.3897 40.2953 23.0881 40.1391C23.8476 40.0697 23.9847 40.0662 24.5086 40.1044C25.8484 40.1981 26.9068 40.4861 28.9392 41.3052C30.7396 42.0306 31.7453 42.4228 31.9984 42.4922C34.5302 43.2002 37.0444 42.3291 37.9059 40.4445C38.2821 39.615 38.3243 38.2649 38.0078 36.9842C37.6984 35.7383 36.7806 33.7149 35.9016 32.3509C33.4225 28.4985 31.6538 26.3571 29.6073 24.7259C27.6839 23.1953 26.0699 22.4699 24.0832 22.2513C23.5241 22.1888 22.5114 22.1888 21.9417 22.2513Z" fill="white"/>
</svg>
