<svg width="46" height="39" viewBox="0 0 46 39" fill="none" xmlns="http://www.w3.org/2000/svg">
<path fill-rule="evenodd" clip-rule="evenodd" d="M23.7396 0.87859C23.2324 0.734648 22.6974 0.73478 22.1901 0.879144C21.11 1.18653 20.0196 1.47123 18.9255 1.7569C14.0428 3.03174 8.66678 4.43541 4.06794 8.18819L1.89965 9.95757C0.170614 11.3685 0.171524 14.1317 1.90206 15.5412L4.03527 17.2787C5.61124 18.5623 7.25369 19.5664 8.93685 20.3852V30.0289C8.93685 32.3899 10.3852 34.5092 12.585 35.3668L20.9183 38.6157C22.2566 39.1374 23.7421 39.1374 25.0804 38.6157L33.4137 35.3668C35.6135 34.5092 37.0619 32.3899 37.0619 30.0289V20.4025C38.7338 19.588 40.3654 18.589 41.9308 17.3116L42.2702 17.0347V27.3333C42.2702 28.1962 42.9697 28.8958 43.8327 28.8958C44.6956 28.8958 45.3952 28.1962 45.3952 27.3333V12.7499C45.3948 11.7065 44.9619 10.6634 44.0966 9.9586L41.9634 8.22112C37.3311 4.44817 31.7292 2.98712 26.9977 1.75311C25.906 1.46836 24.8178 1.18456 23.7396 0.87859ZM15.2892 20.6921C14.4979 20.3479 13.5774 20.7104 13.2332 21.5017C12.889 22.2931 13.2515 23.2136 14.0428 23.5578C16.705 24.7156 19.4608 25.663 22.2849 26.3878C22.777 26.5141 23.2932 26.514 23.7854 26.3873C26.602 25.6624 29.3496 24.715 32.0032 23.557C32.7942 23.2119 33.1555 22.2909 32.8104 21.5C32.4653 20.7091 31.5443 20.3477 30.7534 20.6928C28.2605 21.7807 25.6796 22.6714 23.0342 23.3538C20.3806 22.6712 17.7911 21.7802 15.2892 20.6921Z" fill="white"/>
</svg>
