<svg width="21" height="21" viewBox="0 0 21 21" fill="none" xmlns="http://www.w3.org/2000/svg">
<path d="M7.53141 0.559463C7.27548 0.625088 7.07368 0.749775 6.85055 0.974541C6.47977 1.34696 6.20415 1.93595 6.06469 2.65126C5.9318 3.33376 5.9318 4.14259 6.06469 4.90548C6.31571 6.36235 7.03759 7.58954 7.88251 7.99806C8.25001 8.17524 8.59454 8.19821 8.95055 8.07024C9.14415 7.9997 9.31641 7.88321 9.50016 7.69618C9.93657 7.25649 10.2237 6.55923 10.3484 5.64376C10.3894 5.33204 10.3894 4.50845 10.3484 4.1672C10.1876 2.87438 9.72657 1.78173 9.05884 1.11399C8.96368 1.01884 8.83407 0.902353 8.77009 0.854775C8.61259 0.73665 8.32548 0.598838 8.15485 0.557822C7.96782 0.513525 7.70204 0.515166 7.53141 0.559463Z" fill="#B5B4B4"/>
<path d="M14.0127 0.87767C13.6075 0.966264 13.2383 1.19431 12.8528 1.59462C12.1424 2.3329 11.6322 3.50923 11.4582 4.81025C11.4238 5.07439 11.409 5.75197 11.4353 6.02267C11.5107 6.85611 11.77 7.52876 12.1703 7.93564C12.6822 8.45736 13.3647 8.5033 14.0521 8.05869C14.4261 7.81751 14.8363 7.36798 15.13 6.88072C15.8814 5.62892 16.1849 3.95384 15.9043 2.62494C15.7009 1.66189 15.1956 1.0122 14.5492 0.879311C14.3966 0.848139 14.1554 0.848139 14.0127 0.87767Z" fill="#B5B4B4"/>
<path d="M3.3954 6.24428C3.02625 6.30991 2.68993 6.52975 2.44055 6.86608C2.32735 7.01866 2.17313 7.32873 2.10094 7.54694C1.89915 8.16873 1.88274 8.99561 2.05993 9.78639C2.21907 10.4935 2.52915 11.1793 2.94094 11.7273C3.07711 11.9094 3.38227 12.2293 3.54305 12.3605C3.80227 12.5705 4.11071 12.7395 4.38961 12.8232C4.6029 12.8855 4.94907 12.897 5.15743 12.8478C5.60204 12.7428 5.96133 12.4376 6.20907 11.9602C6.93586 10.5558 6.43547 8.19498 5.14266 6.93827C5.04422 6.84311 4.90805 6.72498 4.84079 6.67413C4.36008 6.31483 3.84821 6.16225 3.3954 6.24428Z" fill="#B5B4B4"/>
<path d="M17.4056 7.54678C17.1513 7.58943 16.8232 7.72724 16.5771 7.89131C16.08 8.22599 15.6354 8.74771 15.3007 9.3892C14.5296 10.8625 14.5099 12.6557 15.2548 13.5859C15.7355 14.1847 16.4655 14.3193 17.2186 13.9452C17.3269 13.8911 17.486 13.7976 17.5697 13.7369C17.7666 13.5958 18.093 13.2824 18.2653 13.0675C19.3301 11.7451 19.6746 9.68451 19.0348 8.44256C18.7887 7.96514 18.4048 7.65014 17.947 7.55498C17.8256 7.52873 17.5352 7.52545 17.4056 7.54678Z" fill="#B5B4B4"/>
<path d="M10.2795 10.4688C9.50838 10.5804 8.55025 11.2071 7.62986 12.1981C6.01877 13.9355 4.76697 16.3636 4.69806 17.8845C4.68658 18.1584 4.71119 18.3799 4.77681 18.5784C4.84244 18.7753 4.91299 18.8869 5.07705 19.0509C5.40681 19.3807 5.80713 19.5874 6.319 19.6908C6.48799 19.7252 6.55033 19.7285 6.96541 19.7285C7.47072 19.7285 7.58392 19.717 8.10236 19.6137C8.48463 19.5366 8.71431 19.4775 9.52478 19.2462C10.5551 18.9542 10.7487 18.9148 11.0374 18.9476C11.3426 18.982 11.6002 19.0706 12.3467 19.4004C12.7503 19.5792 13.0505 19.6842 13.3064 19.7384C13.5361 19.7859 13.9069 19.7909 14.1103 19.7466C14.591 19.6432 15.0209 19.3758 15.4835 18.8934C15.7477 18.6195 15.8264 18.4915 15.9019 18.2192C15.9331 18.1027 15.938 18.0452 15.938 17.7188C15.9396 17.302 15.9232 17.1675 15.8166 16.7262C15.4901 15.371 14.5992 13.6927 13.5115 12.3867C13.2392 12.0602 12.6535 11.4729 12.3795 11.2547C11.843 10.8265 11.3131 10.5558 10.8553 10.4754C10.6995 10.4492 10.4403 10.4459 10.2795 10.4688Z" fill="#B5B4B4"/>
</svg>
