<svg width="44" height="43" viewBox="0 0 44 43" fill="none" xmlns="http://www.w3.org/2000/svg">
<path d="M12.4251 15.7675C13.6124 22.3658 17.2558 28.3269 22.6526 32.4648L23.5123 33.1484C25.4793 34.7123 28.291 34.6647 30.1749 33.0356L31.9391 31.51C32.5126 31.014 32.6028 30.1652 32.1468 29.5545L28.742 24.9946C28.2419 24.3248 27.28 24.1952 26.6255 24.7093L24.8237 26.1249C21.8417 23.5596 19.7872 20.0931 18.9903 16.2826L21.1367 15.4484C21.9163 15.1454 22.2777 14.2617 21.9318 13.5041L19.5768 8.34576C19.2614 7.65509 18.4649 7.31168 17.7415 7.55452L15.5011 8.30658C13.1102 9.10915 11.6745 11.5033 12.1079 13.9651L12.4246 15.7648L12.4251 15.7675Z" fill="#B5B4B4"/>
</svg>
