<svg width="57" height="62" viewBox="0 0 57 62" fill="none" xmlns="http://www.w3.org/2000/svg">
<path d="M32.9976 2.07734C30.2306 0.411232 26.7694 0.411234 24.0024 2.07734L22.0018 3.28205C17.1474 6.20511 11.6977 7.99881 6.05613 8.53032L4.79566 8.64907C2.30756 8.88348 0.40625 10.9723 0.40625 13.4715V19.8415C0.40625 30.6087 4.77758 40.9145 12.5189 48.3981L25.1334 60.5928C27.0109 62.4078 29.9891 62.4078 31.8666 60.5928L44.4811 48.3982C52.2224 40.9145 56.5938 30.6087 56.5938 19.8415V13.4715C56.5938 10.9723 54.6924 8.88348 52.2043 8.64907L50.9439 8.53032C45.3023 7.99881 39.8526 6.20511 34.9982 3.28204L32.9976 2.07734Z" fill="#5C5C5C"/>
</svg>
