<svg width="21" height="21" viewBox="0 0 21 21" fill="none" xmlns="http://www.w3.org/2000/svg">
<path d="M10.5 3.28125C8.68782 3.28125 7.21875 4.75032 7.21875 6.5625C7.21875 8.37468 8.68782 9.84375 10.5 9.84375C12.3122 9.84375 13.7812 8.37468 13.7812 6.5625C13.7812 4.75032 12.3122 3.28125 10.5 3.28125Z" fill="#B5B4B4"/>
<path d="M7 11.5938C5.18782 11.5938 3.71875 13.0628 3.71875 14.875V15.9147C3.71875 16.5738 4.1964 17.1358 4.84686 17.242C8.59084 17.8532 12.4092 17.8532 16.1531 17.242C16.8036 17.1358 17.2812 16.5738 17.2812 15.9147V14.875C17.2812 13.0628 15.8122 11.5938 14 11.5938H13.7017C13.5403 11.5938 13.3799 11.6193 13.2264 11.6694L12.4691 11.9167C11.1896 12.3345 9.81039 12.3345 8.53089 11.9167L7.77356 11.6694C7.62011 11.6193 7.45969 11.5938 7.29826 11.5938H7Z" fill="#B5B4B4"/>
</svg>
