<svg width="21" height="21" viewBox="0 0 21 21" fill="none" xmlns="http://www.w3.org/2000/svg">
<path d="M12.0715 3.61921C11.2119 2.73142 9.78809 2.73142 8.92847 3.61921L4.7298 7.95548C4.48867 8.20451 4.32663 8.51935 4.26411 8.86031C3.75419 11.641 3.71655 14.4878 4.15277 17.281L4.30721 18.27C4.35599 18.5823 4.62502 18.8126 4.94116 18.8126H7.875C8.11663 18.8126 8.3125 18.6167 8.3125 18.3751V12.2501H12.6875V18.3751C12.6875 18.6167 12.8834 18.8126 13.125 18.8126H16.0588C16.3749 18.8126 16.644 18.5823 16.6928 18.27L16.8472 17.281C17.2834 14.4878 17.2458 11.641 16.7359 8.86031C16.6733 8.51935 16.5113 8.20452 16.2702 7.95548L12.0715 3.61921Z" fill="#B5B4B4"/>
</svg>
