<svg width="21" height="21" viewBox="0 0 21 21" fill="none" xmlns="http://www.w3.org/2000/svg">
<path d="M11.2574 2.62164C10.9202 2.04051 10.081 2.04051 9.74381 2.62164L7.36902 6.71429C7.20244 7.00136 6.91452 7.19726 6.58634 7.24683L2.13582 7.91903C1.38832 8.03193 1.12612 8.97571 1.70826 9.45801L5.02372 12.2048C5.33062 12.4591 5.47492 12.8602 5.40037 13.2517L4.5331 17.8062C4.396 18.5261 5.15181 19.0855 5.80032 18.7441L9.99105 16.5375C10.31 16.3695 10.6912 16.3695 11.0102 16.5375L15.2009 18.7441C15.8495 19.0855 16.6053 18.5261 16.4682 17.8062L15.6009 13.2517C15.5263 12.8602 15.6706 12.4591 15.9775 12.2048L19.293 9.45801C19.8751 8.97572 19.6129 8.03193 18.8654 7.91903L14.4149 7.24683C14.0867 7.19726 13.7988 7.00136 13.6322 6.71429L11.2574 2.62164Z" fill="#B5B4B4"/>
</svg>
