<svg width="66" height="59" viewBox="0 0 66 59" fill="none" xmlns="http://www.w3.org/2000/svg">
<path d="M35.4754 18.2646L38.1223 2.28164C38.34 0.967969 39.4744 0 40.8036 0C41.6629 0 42.465 0.40332 42.9806 1.09473L44.9171 3.6875H50.8869C52.3421 3.6875 53.74 4.2752 54.7713 5.3123L56.8338 7.375H63.2504C64.7744 7.375 66.0004 8.60801 66.0004 10.1406V12.9062C66.0004 17.9996 61.8983 22.125 56.8338 22.125H48.8931L48.3088 25.6396L35.4754 18.2646ZM47.6671 29.5115V55.3125C47.6671 57.3521 46.0286 59 44.0004 59H40.3338C38.3056 59 36.6671 57.3521 36.6671 55.3125V42.0375C33.9171 43.4549 30.8004 44.25 27.5004 44.25C24.2004 44.25 21.0838 43.4549 18.3338 42.0375V55.3125C18.3338 57.3521 16.6952 59 14.6671 59H11.0004C8.97231 59 7.33376 57.3521 7.33376 55.3125V28.7855C4.03376 27.5295 1.44418 24.7178 0.550431 21.1225L0.115014 19.3363C-0.377694 17.3658 0.813972 15.3607 2.78481 14.8652C4.75564 14.3697 6.73793 15.5682 7.23064 17.5502L7.67751 19.3363C8.07856 20.9727 9.54522 22.125 11.2296 22.125H34.8108L47.6671 29.5115ZM53.1671 9.21875C53.1671 8.72976 52.9739 8.26079 52.6301 7.91502C52.2863 7.56925 51.82 7.375 51.3338 7.375C50.8475 7.375 50.3812 7.56925 50.0374 7.91502C49.6936 8.26079 49.5004 8.72976 49.5004 9.21875C49.5004 9.70774 49.6936 10.1767 50.0374 10.5225C50.3812 10.8682 50.8475 11.0625 51.3338 11.0625C51.82 11.0625 52.2863 10.8682 52.6301 10.5225C52.9739 10.1767 53.1671 9.70774 53.1671 9.21875Z" fill="#5C5C5C"/>
</svg>
