<svg width="21" height="21" viewBox="0 0 21 21" fill="none" xmlns="http://www.w3.org/2000/svg">
<path d="M7.65552 8.75C7.65552 7.17944 8.92871 5.90625 10.4993 5.90625C12.0698 5.90625 13.343 7.17944 13.343 8.75C13.343 10.3206 12.0698 11.5938 10.4993 11.5938C8.92871 11.5938 7.65552 10.3206 7.65552 8.75Z" fill="#B5B4B4"/>
<path fill-rule="evenodd" clip-rule="evenodd" d="M3.30112 7.76772C3.6018 4.11989 6.65012 1.3125 10.3103 1.3125H10.6883C14.3485 1.3125 17.3968 4.11989 17.6975 7.76772C17.8594 9.73174 17.2527 11.6819 16.0052 13.2075L11.8113 18.3366C11.1332 19.1659 9.86538 19.1659 9.18728 18.3366L4.99335 13.2075C3.7459 11.6819 3.13923 9.73174 3.30112 7.76772ZM10.4993 4.59375C8.20383 4.59375 6.34302 6.45457 6.34302 8.75C6.34302 11.0454 8.20383 12.9063 10.4993 12.9063C12.7947 12.9063 14.6555 11.0454 14.6555 8.75C14.6555 6.45457 12.7947 4.59375 10.4993 4.59375Z" fill="#B5B4B4"/>
</svg>
