<svg width="21" height="21" viewBox="0 0 21 21" fill="none" xmlns="http://www.w3.org/2000/svg">
<path d="M16.7543 4.59375H4.66825L3.6356 2.74277C3.51969 2.53501 3.30041 2.40625 3.0625 2.40625H1.75C1.38756 2.40625 1.09375 2.70006 1.09375 3.0625C1.09375 3.42494 1.38756 3.71875 1.75 3.71875H2.67715L3.69626 5.54544L6.04657 10.7458L6.04898 10.7511L6.25599 11.2091L3.89626 13.7262C3.72659 13.9071 3.67347 14.1683 3.75899 14.4012C3.8445 14.6341 4.05403 14.7988 4.3005 14.827L6.45137 15.0728C9.14171 15.3803 11.8583 15.3803 14.5487 15.0728L16.6995 14.827C17.0596 14.7859 17.3182 14.4606 17.277 14.1005C17.2359 13.7404 16.9106 13.4818 16.5505 13.523L14.3996 13.7688C11.8083 14.065 9.19171 14.065 6.6004 13.7688L5.74682 13.6713L7.47877 11.8238C7.49553 11.806 7.51109 11.7874 7.52546 11.7683L8.18417 11.854C9.10723 11.9741 10.0403 11.9976 10.9682 11.9242C13.1325 11.7531 15.1384 10.7232 16.5388 9.06419L17.0446 8.46497C17.0616 8.44485 17.0773 8.42372 17.0918 8.4017L18.0345 6.96508C18.7027 5.94678 17.9722 4.59375 16.7543 4.59375Z" fill="#B5B4B4"/>
<path d="M5.6875 16.1875C4.96263 16.1875 4.375 16.7751 4.375 17.5C4.375 18.2249 4.96263 18.8125 5.6875 18.8125C6.41237 18.8125 7 18.2249 7 17.5C7 16.7751 6.41237 16.1875 5.6875 16.1875Z" fill="#B5B4B4"/>
<path d="M14 17.5C14 16.7751 14.5876 16.1875 15.3125 16.1875C16.0374 16.1875 16.625 16.7751 16.625 17.5C16.625 18.2249 16.0374 18.8125 15.3125 18.8125C14.5876 18.8125 14 18.2249 14 17.5Z" fill="#B5B4B4"/>
</svg>
