<svg width="61" height="72" viewBox="0 0 61 72" fill="none" xmlns="http://www.w3.org/2000/svg">
<path d="M21.7812 25.875C21.7812 21.0598 25.6848 17.1562 30.5 17.1562C35.3152 17.1562 39.2188 21.0598 39.2188 25.875C39.2188 30.6902 35.3152 34.5938 30.5 34.5938C25.6848 34.5938 21.7812 30.6902 21.7812 25.875Z" fill="#5C5C5C"/>
<path fill-rule="evenodd" clip-rule="evenodd" d="M29.8724 0.6875C17.4632 0.6875 7.12847 10.2054 6.10906 22.5726C5.56105 29.221 7.61469 35.8227 11.8374 40.987L25.7673 58.0228C28.2134 61.0143 32.7867 61.0143 35.2327 58.0228L49.1626 40.987C53.3853 35.8227 55.439 29.221 54.891 22.5726C53.8716 10.2054 43.5368 0.6875 31.1277 0.6875H29.8724ZM30.5 11.3438C22.4746 11.3438 15.9688 17.8496 15.9688 25.875C15.9688 33.9004 22.4746 40.4062 30.5 40.4062C38.5254 40.4062 45.0312 33.9004 45.0312 25.875C45.0312 17.8496 38.5254 11.3438 30.5 11.3438Z" fill="#5C5C5C"/>
<path d="M12.4247 50.4006C13.8603 51.1184 14.4422 52.8641 13.7244 54.2997L8.07741 65.5937H52.9226L47.2756 54.2997C46.5578 52.8641 47.1397 51.1184 48.5753 50.4006C50.0109 49.6827 51.7566 50.2646 52.4744 51.7003L60.2244 67.2003C60.6749 68.1012 60.6267 69.1711 60.0972 70.0279C59.5677 70.8847 58.6322 71.4062 57.625 71.4062H3.375C2.36776 71.4062 1.43234 70.8847 0.902799 70.0279C0.373261 69.1711 0.325122 68.1012 0.775574 67.2003L8.52557 51.7003C9.24339 50.2646 10.9891 49.6827 12.4247 50.4006Z" fill="#5C5C5C"/>
</svg>
