<svg width="20" height="17" viewBox="0 0 20 17" fill="none" xmlns="http://www.w3.org/2000/svg">
<path d="M7.71948 2.0782C7.71948 1.79123 7.98603 1.55859 8.31483 1.55859H11.49C11.8188 1.55859 12.0854 1.79123 12.0854 2.0782V2.59781H15.459C15.7878 2.59781 16.0544 2.83045 16.0544 3.11742C16.0544 3.40439 15.7878 3.63703 15.459 3.63703H4.34584C4.01704 3.63703 3.75049 3.40439 3.75049 3.11742C3.75049 2.83045 4.01704 2.59781 4.34584 2.59781H7.71948V2.0782Z" fill="#A2A2A2"/>
<path fill-rule="evenodd" clip-rule="evenodd" d="M5.33006 5.504C5.3524 5.32857 5.5223 5.19585 5.72454 5.19585H14.0803C14.2825 5.19585 14.4524 5.32857 14.4748 5.504L14.6337 6.75199C14.92 9.00153 14.92 11.2718 14.6337 13.5214L14.618 13.6442C14.5137 14.4635 13.7862 15.1168 12.8508 15.2311C10.8948 15.4701 8.91009 15.4701 6.95405 15.2311C6.01867 15.1168 5.29113 14.4635 5.18683 13.6442L5.17119 13.5214C4.8848 11.2718 4.8848 9.00153 5.17119 6.75199L5.33006 5.504ZM8.91018 7.89781C8.91018 7.61083 8.64363 7.3782 8.31483 7.3782C7.98603 7.3782 7.71948 7.61083 7.71948 7.89781L7.71948 12.7475C7.71948 13.0344 7.98603 13.2671 8.31483 13.2671C8.64363 13.2671 8.91018 13.0344 8.91018 12.7475L8.91018 7.89781ZM12.0854 7.89781C12.0854 7.61083 11.8188 7.3782 11.49 7.3782C11.1612 7.3782 10.8947 7.61083 10.8947 7.89781V12.7475C10.8947 13.0344 11.1612 13.2671 11.49 13.2671C11.8188 13.2671 12.0854 13.0344 12.0854 12.7475V7.89781Z" fill="#A2A2A2"/>
</svg>
