<svg width="56" height="62" viewBox="0 0 56 62" fill="none" xmlns="http://www.w3.org/2000/svg">
<path d="M22.4587 23.0837C22.4587 20.0231 24.9397 17.542 28.0003 17.542C31.0609 17.542 33.542 20.0231 33.542 23.0837C33.542 26.1442 31.0609 28.6253 28.0003 28.6253C24.9397 28.6253 22.4587 26.1442 22.4587 23.0837Z" fill="#5C5C5C"/>
<path fill-rule="evenodd" clip-rule="evenodd" d="M5.83367 23.0837C5.83367 10.8413 15.758 0.916992 28.0003 0.916992C40.2427 0.916992 50.167 10.8413 50.167 23.0837C50.167 27.4289 48.9167 31.4822 46.7563 34.9033L55.3905 49.8582C55.8567 50.6657 55.8073 51.6712 55.2643 52.429C54.7212 53.1869 53.785 53.5569 52.8705 53.3751L44.5862 51.7279L41.8705 59.726C41.5708 60.6088 40.7822 61.2346 39.8543 61.326C38.9265 61.4173 38.031 60.9573 37.5648 60.1499L28.951 45.2303C28.6358 45.2436 28.3188 45.2503 28.0003 45.2503C27.6818 45.2503 27.3649 45.2436 27.0497 45.2303L18.4359 60.1499C17.9702 60.9565 17.076 61.4165 16.1489 61.3262C15.2219 61.236 14.4332 60.6122 14.1318 59.7309L11.4024 51.749L3.12511 53.3761C2.21119 53.5558 1.27661 53.1847 0.734937 52.427C0.193259 51.6693 0.144481 50.6649 0.610186 49.8582L9.24442 34.9033C7.08396 31.4822 5.83367 27.4289 5.83367 23.0837ZM12.4391 38.87C15.0745 41.4681 18.3575 43.4112 22.0239 44.4353L16.9353 53.2489L15.226 48.2502C14.8416 47.1263 13.6861 46.4591 12.5206 46.6882L7.33688 47.7073L12.4391 38.87ZM33.9768 44.4353L39.0578 53.2358L40.7579 48.2287C41.141 47.1003 42.3011 46.4305 43.47 46.6629L48.6563 47.6942L43.5616 38.87C40.9262 41.4681 37.6432 43.4112 33.9768 44.4353ZM28.0003 12.792C22.3164 12.792 17.7087 17.3997 17.7087 23.0837C17.7087 28.7676 22.3164 33.3753 28.0003 33.3753C33.6843 33.3753 38.292 28.7676 38.292 23.0837C38.292 17.3997 33.6843 12.792 28.0003 12.792Z" fill="#5C5C5C"/>
</svg>
