<svg width="21" height="21" viewBox="0 0 21 21" fill="none" xmlns="http://www.w3.org/2000/svg">
<path fill-rule="evenodd" clip-rule="evenodd" d="M7.0017 3.98381C9.36098 3.80599 11.7307 3.81766 14.0881 4.01869L15.5089 4.13986C16.5821 4.23138 17.4531 5.04584 17.6163 6.1105L17.7059 6.69528C18.0101 8.6797 17.9816 10.7009 17.6218 12.676C17.4442 13.6505 16.5953 14.3588 15.6047 14.3588H7.75036C7.56966 14.3588 7.39177 14.4035 7.2326 14.4891L3.81066 16.3281C3.60728 16.4374 3.36143 16.4317 3.16325 16.3133C2.96508 16.1948 2.84375 15.9809 2.84375 15.75V8.29737C2.84375 6.0411 4.58273 4.16612 6.83262 3.99655L7.0017 3.98381ZM7 8.31251C6.39594 8.31251 5.90625 8.8022 5.90625 9.40626C5.90625 10.0103 6.39594 10.5 7 10.5C7.60406 10.5 8.09375 10.0103 8.09375 9.40626C8.09375 8.8022 7.60406 8.31251 7 8.31251ZM10.5 8.31251C9.89594 8.31251 9.40625 8.8022 9.40625 9.40626C9.40625 10.0103 9.89594 10.5 10.5 10.5C11.1041 10.5 11.5938 10.0103 11.5938 9.40626C11.5938 8.8022 11.1041 8.31251 10.5 8.31251ZM12.9062 9.40626C12.9062 8.8022 13.3959 8.31251 14 8.31251C14.6041 8.31251 15.0938 8.8022 15.0938 9.40626C15.0938 10.0103 14.6041 10.5 14 10.5C13.3959 10.5 12.9062 10.0103 12.9062 9.40626Z" fill="#B5B4B4"/>
</svg>
