<svg width="21" height="21" viewBox="0 0 21 21" fill="none" xmlns="http://www.w3.org/2000/svg">
<path fill-rule="evenodd" clip-rule="evenodd" d="M10.0536 3.59691C7.603 2.12654 4.60589 1.88639 1.95241 2.94778C1.56593 3.10238 1.3125 3.4767 1.3125 3.89296V14.0945C1.3125 14.7778 2.00267 15.2451 2.63713 14.9913C4.81006 14.1221 7.26438 14.3188 9.27118 15.5229L10.2645 16.1189C10.3403 16.1643 10.4213 16.1842 10.5 16.1828C10.5787 16.1842 10.6597 16.1643 10.7355 16.1189L11.7288 15.5229C13.7356 14.3188 16.1899 14.1221 18.3629 14.9913C18.9973 15.2451 19.6875 14.7778 19.6875 14.0945V3.89296C19.6875 3.4767 19.4341 3.10238 19.0476 2.94778C16.3941 1.88639 13.397 2.12654 10.9464 3.59691L10.5 3.86474L10.0536 3.59691ZM11.1562 5.68745C11.1562 5.32501 10.8624 5.0312 10.5 5.0312C10.1376 5.0312 9.84375 5.32501 9.84375 5.68745V14C9.84375 14.3624 10.1376 14.6562 10.5 14.6562C10.8624 14.6562 11.1562 14.3624 11.1562 14V5.68745Z" fill="#B5B4B4"/>
<path d="M2.38423 16.6619C4.15511 15.6289 6.34489 15.6289 8.11576 16.6619L9.06712 17.2169C9.95255 17.7334 11.0474 17.7334 11.9329 17.2169L12.8842 16.6619C14.6551 15.6289 16.8449 15.6289 18.6158 16.6619L18.7057 16.7143C19.0187 16.897 19.1245 17.2988 18.9419 17.6119C18.7592 17.9249 18.3574 18.0307 18.0443 17.8481L17.9544 17.7956C16.5922 17.001 14.9078 17.001 13.5456 17.7956L12.5942 18.3506C11.3001 19.1055 9.69989 19.1055 8.40579 18.3506L7.45443 17.7956C6.09222 17.001 4.40778 17.001 3.04556 17.7956L2.95567 17.8481C2.6426 18.0307 2.24077 17.9249 2.05815 17.6119C1.87552 17.2988 1.98127 16.897 2.29433 16.7143L2.38423 16.6619Z" fill="#B5B4B4"/>
</svg>
